<?xml version="1.0" encoding="utf-8"?>
<!-- Generator: Adobe Illustrator 25.0.1, SVG Export Plug-In . SVG Version: 6.00 Build 0)  -->
<svg version="1.1" id="Layer_1" xmlns="http://www.w3.org/2000/svg" xmlns:xlink="http://www.w3.org/1999/xlink" x="0px" y="0px"
	 viewBox="0 0 355.13 57.03" style="enable-background:new 0 0 355.13 57.03;" xml:space="preserve">
<style type="text/css">
	.st0{fill:#D9B33B;stroke:#000000;stroke-width:0.6;}
</style>
<g id="XMLID_21_">
	<g id="XMLID_38_">
		<path id="XMLID_39_" class="st0" d="M53.18,13.84l0.8,14.05l-9.1-8.9h-5.55v17.12l8.72,6.79H18.33l8.72-6.79V18.99H21.5l-9.1,8.9
			l0.8-14.05H53.18z"/>
	</g>
	<path id="XMLID_37_" class="st0" d="M303.69,23.13c0-3.35,1.33-5.98,3.99-7.88c2.66-1.9,6.33-2.85,11.01-2.85
		c4.5,0,8.54,0.76,12.11,2.28l0.99,0.43l6.67-2.51v12.28c-6.23-4.97-12.87-7.45-19.91-7.45c-4.25,0-6.37,0.77-6.37,2.32
		c0,0.73,0.52,1.27,1.55,1.64c1.03,0.37,2.98,0.7,5.83,0.98l5.05,0.49c6.33,0.63,10.58,1.56,12.72,2.81
		c3.59,2.1,5.39,4.91,5.39,8.43c0,3.15-1.42,5.66-4.27,7.53c-2.85,1.87-6.68,2.8-11.48,2.8c-5.15,0-10.43-1.04-15.84-3.13
		l-6.18,2.81V29.54c2.12,2.98,5.04,5.31,8.76,6.98c3.72,1.67,7.82,2.51,12.31,2.51c4.72,0,7.08-0.77,7.08-2.32
		c0-0.72-0.32-1.21-0.95-1.46c-0.63-0.25-2.15-0.49-4.55-0.71l-5.19-0.49c-6.03-0.55-10.3-1.44-12.79-2.66
		C305.67,29.45,303.69,26.69,303.69,23.13"/>
	<path id="XMLID_34_" class="st0" d="M289.64,13.91l-5.69,5.3l9.94,16.97l8.98,6.79h-29.94l8.25-5.96l-1.08-2h-13.68l-1.06,2
		l7.17,5.96h-22.19l7-6.79l9.78-16.97l-5.57-5.3H289.64z M272.94,22.34l-4.2,7.88h8.67L272.94,22.34z"/>
	<path id="XMLID_32_" class="st0" d="M222.25,13.85l14.79,15.69v-8.92l-8.74-6.77h24.35l-8.72,6.77v22.29h-12.29l-14.97-16.52v9.73
		l8.74,6.79h-24.35l8.72-6.79v-15.5l-8.72-6.77H222.25z"/>
	<g id="XMLID_29_">
		<path id="XMLID_30_" class="st0" d="M196.84,13.91v12.56l-8.91-7.77h-16.76v6.34h9.21l6.54-3.41v13.11l-6.54-3.96h-9.21v6.43
			h16.76l9.61-8.35v14.09h-47.36l8.72-6.73V20.66l-8.72-6.75H196.84z"/>
	</g>
	<g id="XMLID_26_">
		<path id="XMLID_27_" class="st0" d="M148.28,27.38v15.56h-46.31l8.7-6.73V20.69l-8.7-6.81h29.69l-8.7,6.81v16.5h14.66
			L148.28,27.38z"/>
	</g>
	<g id="XMLID_22_">
		<path id="XMLID_23_" class="st0" d="M79.59,13c6.01,0,11.23,1.63,15.66,4.9c4.43,3.26,6.64,7.1,6.64,11.52
			c0,4.1-2.23,7.64-6.69,10.61c-4.46,2.97-9.76,4.46-15.9,4.46c-6.02,0-11.31-1.51-15.87-4.52c-4.56-3.02-6.84-6.51-6.84-10.49
			c0-4.5,2.26-8.37,6.79-11.61C67.91,14.62,73.32,13,79.59,13z M79.25,18.02c-2.47,0-4.49,0.98-6.05,2.95
			c-1.56,1.97-2.34,4.5-2.34,7.61c0,3.09,0.76,5.57,2.3,7.44c1.53,1.87,3.56,2.8,6.09,2.8c2.54,0,4.57-0.93,6.1-2.79
			c1.53-1.86,2.29-4.34,2.29-7.45c0-3.09-0.78-5.63-2.35-7.6C83.72,19.01,81.7,18.02,79.25,18.02z"/>
	</g>
</g>
<g>
	<path d="M240.3,18.85c0.18,0.05,0.33,0.06,0.44,0.14c0.29,0.2,0.57,0.42,0.84,0.65c0.41,0.34,0.38,0.64-0.06,0.96
		c-0.32,0.24-0.61,0.52-1.03,0.88c-0.53,0-1.17,0.14-1.47,0.91c-0.15-0.06-0.31-0.1-0.45-0.18c-0.12-0.07-0.28-0.2-0.28-0.31
		c0-0.16,0.08-0.38,0.2-0.46c0.82-0.52,1.32-1.28,1.73-2.12C240.28,19.21,240.27,19.07,240.3,18.85z"/>
	<path d="M337.47,24.15c-0.72-0.5-1.45-1.01-2.14-1.5c0.25-0.55,0.47-1.06,0.66-1.48c0.44,0.16,0.93,0.33,1.4,0.52
		c0.1,0.04,0.18,0.17,0.23,0.27c0.1,0.21,0.19,0.43,0.26,0.65c0.03,0.08,0.03,0.19,0,0.27C337.76,23.3,337.62,23.71,337.47,24.15z"
		/>
	<path d="M111.23,15.75c0.27-0.04,0.68-0.11,1.18-0.19c-0.09,0.67-0.12,1.33-0.27,1.96c-0.12,0.48-0.64,0.62-1.2,0.41
		c-0.19-0.07-0.38-0.18-0.58-0.19c-0.29-0.03-0.56-0.17-0.53-0.42c0.03-0.24,0.25-0.49,0.44-0.69
		C110.52,16.36,110.83,16.11,111.23,15.75z"/>
	<path d="M335.75,16.88c0.44-0.05,0.91-0.1,1.37-0.15c0.37-0.04,0.58,0.19,0.69,0.5c0.13,0.36,0.21,0.73-0.24,0.95
		c-0.05,0.03-0.12,0.04-0.15,0.09c-0.65,0.78-1.35,0.39-2.07,0.11C335.48,17.9,335.6,17.44,335.75,16.88z"/>
	<path d="M72.25,43.87c-0.95-0.29-1.87-0.57-2.79-0.86c-0.08-0.03-0.22-0.06-0.23-0.1c-0.06-0.41-0.13-0.82-0.13-1.23
		c0-0.18,0.15-0.37,0.26-0.62c0.6,0.48,1.13,0.91,1.67,1.34c0.1,0.08,0.21,0.17,0.33,0.23C71.85,42.86,72.26,43.16,72.25,43.87z"/>
	<path d="M92.85,33.09c0.31-0.39,0.6-0.63,1.09-0.44c0.25,0.1,0.55,0.06,0.83,0.11c0.23,0.04,0.4,0.14,0.52,0.39
		c0.21,0.43,0.48,0.83,0.76,1.29c-0.52,0-1,0.04-1.29,0.52c-0.01,0.02-0.37-0.13-0.36-0.16c0.14-0.74-0.55-0.87-0.9-1.23
		C93.32,33.38,93.08,33.25,92.85,33.09z"/>
	<path d="M36.7,35.36c0.74-0.17,1.35-0.3,2.02-0.45c0.2,0.61,0.47,1.2,0.36,1.89c-0.03,0.19,0.09,0.41,0.12,0.62
		c0.02,0.17,0,0.35,0,0.52c-0.06,0.02-0.13,0.05-0.19,0.07C38.25,37.15,37.51,36.3,36.7,35.36z"/>
	<path d="M268.38,39.54c0.32,0.23,0.64,0.46,0.96,0.68c0.5,0.34,0.55,0.63,0.32,1.16c-0.13,0.3-0.24,0.65-0.22,0.97
		c0.02,0.47-0.07,0.75-0.6,0.7c0.18-1.19,0-1.34-0.59-1.53c-0.1-0.27-0.14-0.57-0.3-0.75c-0.22-0.24-0.17-0.37,0.01-0.58
		C268.12,40,268.24,39.76,268.38,39.54z"/>
	<path d="M36.67,27.54c0.09-0.13,0.17-0.23,0.2-0.28c0.56,0.4,1.12,0.79,1.71,1.21c-0.35,0.51-0.4,1.15-0.1,1.87
		c-0.58-0.15-1,0.11-1.34,0.55c-0.04-0.02-0.07-0.05-0.11-0.07c0.03-0.45,0.05-0.9,0.08-1.35C37.15,28.81,37.27,28.11,36.67,27.54z"
		/>
	<path d="M73,18.47c-0.41-0.52-0.93-0.39-1.6-0.22c0.22-0.4,0.37-0.7,0.54-1c0.2-0.35,0.41-0.7,0.68-1.15
		c0.23,0.18,0.53,0.49,0.88,0.66c0.45,0.23,0.52,0.61,0.62,1.06C73.75,18.03,73.38,18.25,73,18.47z"/>
	<path d="M269.53,24.13c0.3-0.42,0.59-0.84,0.86-1.21c0.41,0.04,0.8,0.08,1.33,0.13c-0.04,0.35-0.1,0.78-0.15,1.2
		c-0.02,0.13-0.06,0.25-0.07,0.38c-0.03,0.37-0.38,0.55-0.7,0.34C270.36,24.7,269.94,24.41,269.53,24.13z"/>
	<path d="M215.2,18.94c-0.08,0.11-0.16,0.23-0.24,0.35c-0.41,0.61-0.93,0.65-1.48,0.14c-0.2-0.18-0.46-0.3-0.69-0.45
		c-0.12-0.08-0.22-0.17-0.33-0.26c0.11-0.12,0.19-0.28,0.33-0.35c0.23-0.12,0.49-0.18,0.74-0.27c0.25-0.09,0.49-0.18,0.72-0.26
		C214.57,18.2,214.89,18.57,215.2,18.94z"/>
	<path d="M228.62,25.42c0.55-0.23,0.96,0.13,1.38,0.41c0.84,0.55,1.66,1.1,2.49,1.66c-0.6,0.69-0.97,0.66-1.82-0.15
		C229.99,26.69,229.31,26.06,228.62,25.42z"/>
	<path d="M309.11,37.65c0.4,0.06,0.8,0.12,1.19,0.17c-0.16,0.43-0.35,0.93-0.54,1.43c-0.22,0.08-0.5,0.13-0.69,0.28
		c-0.24,0.18-0.37,0.14-0.56-0.05c-0.57-0.58-0.57-1.02,0.06-1.54c0.17-0.14,0.35-0.27,0.53-0.4
		C309.1,37.58,309.1,37.61,309.11,37.65z"/>
	<path d="M90.25,15.63c0.25,1.55,0.32,1.68,1.25,2.36c-0.35,0.25-0.68,0.5-1.05,0.77c-0.36-0.87-0.67-1.77-1.63-2.33
		C89.31,16.16,89.76,15.91,90.25,15.63z"/>
	<path d="M272.55,13.96c0.97,0,1.86,0,2.75,0c0.15,0.88-0.35,1.35-1.2,1.15c-0.17-0.04-0.37,0.02-0.54-0.03
		c-0.21-0.06-0.46-0.15-0.59-0.31C272.79,14.56,272.7,14.27,272.55,13.96z"/>
	<path d="M30.49,28.59c-0.23,1.03-0.47,1.96-0.62,2.89c-0.06,0.39,0.06,0.81,0.1,1.24c-0.31-0.36-0.53-0.74-0.57-1.23
		c-0.04-0.51-0.14-1.02-0.16-1.53c-0.02-0.4,0.05-0.79,0.09-1.27C29.69,28.66,30.06,28.62,30.49,28.59z"/>
	<path d="M334.29,17.14c0.01,0.04,0.01,0.06,0.01,0.07c-0.03,0.23-0.01,0.49-0.1,0.69c-0.17,0.39-0.38-0.04-0.58-0.01
		c-0.23,0.03-0.47,0.04-0.69,0c-1.09-0.22-2.17-0.47-3.18-0.69c0.68-0.09,1.43-0.25,2.19-0.26
		C332.71,16.92,333.49,17.06,334.29,17.14z"/>
	<path d="M38.03,33.56c-0.87,0.2-1.66,0.51-2.37,1.05c-0.15,0.11-0.33,0.18-0.51,0.25c-0.67,0.25-1.35,0.48-2.07,0.74
		c0.12-0.37,0.18-0.75,0.36-1.05c0.09-0.15,0.4-0.19,0.62-0.25c1.09-0.27,2.18-0.54,3.28-0.78C37.56,33.46,37.8,33.54,38.03,33.56z"
		/>
	<path d="M280.19,17.55c0.01,0.09,0.01,0.18,0.03,0.26c0.16,1.03,0.81,1.41,1.78,1.06c0.11-0.04,0.23-0.03,0.34-0.05
		c-0.07,0.09-0.12,0.21-0.21,0.26c-0.38,0.22-0.76,0.44-1.16,0.62c-0.53,0.24-1.06-0.01-1.28-0.58c-0.03-0.08-0.06-0.16-0.09-0.25
		C279.32,18.04,279.33,18.01,280.19,17.55z"/>
	<path d="M234.58,17.54c-0.13-0.48-0.26-0.94-0.4-1.5c0.79-0.09,1.59-0.18,2.39-0.28c0.03,0.05,0.07,0.09,0.1,0.14
		c-0.28,0.38-0.56,0.75-0.82,1.13C235.52,17.5,234.98,17.35,234.58,17.54z"/>
	<path d="M34.83,40.26c-0.2,0.5-0.4,0.96-0.61,1.47c-0.47-0.51-0.8-1.28-1.7-1.36c0.33-0.68,1.06-0.69,1.55-1.07
		C34.36,39.65,34.6,39.96,34.83,40.26z"/>
	<path d="M70.65,23.81c0.29,0.31,0.55,0.55,0.77,0.82c0.07,0.08,0.06,0.24,0.04,0.36c-0.06,0.37-0.16,0.74-0.23,1.11
		c-0.04,0.2-0.1,0.31-0.32,0.17c-0.44-0.27-0.89-0.53-1.25-0.75C70.02,24.91,70.32,24.38,70.65,23.81z"/>
	<path d="M21.85,14.14c0.46-0.61,1.15-0.1,1.7-0.33c0.09,0.46,0.18,0.84,0.25,1.23c0.06,0.32-0.45,0.71-0.84,0.57
		c-0.3-0.1-0.74-0.08-0.72-0.65C22.25,14.72,22.02,14.47,21.85,14.14z"/>
	<path d="M90.14,39.75c-0.25-0.03-0.63,0-0.65-0.58c-0.01-0.32-0.2-0.64-0.29-0.92c0.46-0.28,0.9-0.55,1.34-0.81
		c0.18,0.33,0.38,0.69,0.55,0.99C90.8,38.83,90.49,39.25,90.14,39.75z"/>
	<path d="M213.89,21.71c0.52,0.29,1.03,0.59,1.44,0.82c0.11,0.54,0.21,1,0.31,1.47c-0.22,0.13-0.54,0.32-0.85,0.51
		c-0.32-0.87-0.64-1.78-0.97-2.69C213.84,21.79,213.86,21.75,213.89,21.71z"/>
	<path d="M308.58,22.46c0.28-0.85,0.26-1.3-0.1-1.87c0.41-0.1,0.83-0.21,1.32-0.33c0.02,0.11,0.1,0.31,0.1,0.52
		c0.01,0.49,0.13,0.99-0.25,1.46c-0.22,0.28-0.36,0.43-0.7,0.27C308.86,22.45,308.73,22.48,308.58,22.46z"/>
	<path d="M209.1,13.88c0,0.32,0,0.62,0,0.9c-0.41,0.07-0.81,0.14-1.08,0.19c-0.59-0.23-1.12-0.43-1.66-0.64c0-0.14,0-0.28,0-0.45
		C207.26,13.88,208.16,13.88,209.1,13.88z"/>
	<path d="M153.45,42.64c-0.14-0.74,0.28-1.2,0.64-1.7c0.14,0.05,0.28,0.1,0.41,0.14c0.5,0.17,0.9,0.76,0.67,1.21
		c-0.13,0.24-0.59,0.31-0.92,0.42c-0.11,0.04-0.25-0.06-0.38-0.07C153.74,42.63,153.6,42.64,153.45,42.64z"/>
	<path d="M27.94,29.33c0.09,0.33,0.21,0.65,0.27,0.98c0.06,0.32,0.06,0.64,0.1,0.96c0.04,0.34-0.21,0.71-0.54,0.64
		c-0.23-0.05-0.54-0.3-0.6-0.52c-0.1-0.39-0.11-0.85,0-1.24c0.08-0.31,0.39-0.55,0.6-0.83C27.83,29.32,27.88,29.33,27.94,29.33z"/>
	<path d="M75.29,13.29c-0.02,0.13-0.01,0.22-0.04,0.23c-0.54,0.2-0.65,0.73-0.88,1.16c-0.14,0.27-0.28,0.42-0.6,0.16
		c-0.31-0.24-0.68-0.4-1.01-0.61c-0.11-0.07-0.17-0.22-0.25-0.33c0.1-0.05,0.19-0.12,0.3-0.14C73.63,13.61,74.44,13.45,75.29,13.29z
		"/>
	<path d="M68.35,17.33c0.47,0.09,0.9,0.18,1.39,0.28c-0.53,0.83-1.42,1.48-1.4,2.6c-0.27,0-0.5,0-0.75,0
		C67.9,19.26,68.55,18.42,68.35,17.33z"/>
	<path d="M119.62,22.71c0.06,0.55-0.4,1.45-0.86,1.71c-0.1,0.06-0.2,0.13-0.29,0.2c-0.25,0.2-0.41,0.13-0.52-0.16
		c-0.27-0.69-0.26-0.73,0.33-1.15c0.12-0.08,0.25-0.16,0.34-0.27C118.87,22.7,119.19,22.59,119.62,22.71z"/>
	<path d="M186.88,41.15c-0.23,0.27-0.45,0.51-0.65,0.77c-0.14,0.18-0.27,0.15-0.44,0.04c-0.2-0.14-0.43-0.24-0.65-0.36
		c0.06-0.45,0.11-0.93,0.17-1.41C185.89,40.12,186.59,40.55,186.88,41.15z"/>
	<path d="M85.36,18.88c-0.07,0.04-0.16,0.09-0.25,0.13c-0.04,0.02-0.08,0.03-0.13,0.05c-0.51-0.72-0.78-1.5-0.77-2.43
		c0.37-0.12,0.78-0.24,1.28-0.39c-0.38,0.65-0.47,1.22-0.13,1.84C85.45,18.28,85.36,18.58,85.36,18.88z"/>
	<path d="M308.41,36.62c-0.73,0.66-1.39,1.29-1.39,2.24c-0.31-0.31-0.67-0.67-1.05-1.05C306.67,37.36,307.33,36.58,308.41,36.62z"/>
	<path d="M163.16,31.29c-0.06,0.2-0.06,0.2-1.09,0.68c-0.35-0.2-0.67-0.39-1.02-0.6c0.09-0.54,0.71-0.69,1.1-1.06
		c0.04-0.03,0.25,0.05,0.32,0.13C162.69,30.69,162.9,30.96,163.16,31.29z"/>
	<path d="M74.9,38.29c-0.52,0.52-1.04,1.04-1.56,1.56c-0.01,0.01-0.03,0.01-0.04,0.01c-0.2,0.05-0.17,0.53-0.53,0.29
		c-0.19-0.13-0.4-1.02-0.29-1.19c0.16-0.26,0.28-0.48,0.71-0.38c0.51,0.13,1.07,0.07,1.48-0.38c0.02-0.02,0.08-0.02,0.12-0.02
		C74.8,38.18,74.81,38.2,74.9,38.29z"/>
	<path d="M81.07,41.12c-0.18,0.97-1.33,1.5-1.92,1.59c-0.07,0.01-0.26-0.21-0.24-0.26c0.16-0.41,0.33-0.82,0.56-1.19
		c0.06-0.11,0.32-0.12,0.49-0.13C80.32,41.11,80.68,41.12,81.07,41.12z"/>
	<path d="M144.22,39.99c-1.12,0.52-2.23,1.03-3.36,1.55c-0.29-0.17-0.43-0.45-0.26-0.77c0.16-0.3,0.44-0.46,0.83-0.34
		c0.57,0.18,1.09,0,1.5-0.41c0.21-0.21,0.39-0.24,0.65-0.15C143.77,39.95,143.99,39.95,144.22,39.99z"/>
	<path d="M27.42,37.5c0,0.72,0,1.3,0,1.8c-0.93,0.44-1.25-0.18-1.61-0.78C26.3,38.21,26.8,37.89,27.42,37.5z"/>
	<path d="M137.23,41.92c0.74,0.07,1.43,0.11,2.12,0.2c0.3,0.04,0.37,0.28,0.18,0.5c-0.31,0.38-1.19,0.65-1.61,0.45
		c-0.14-0.07-0.24-0.25-0.33-0.4C137.46,42.45,137.36,42.2,137.23,41.92z"/>
	<path d="M337.23,13.13c0.11,0.25,0.21,0.48,0.33,0.77c-0.3,0.26-0.6,0.54-0.93,0.79c-0.08,0.06-0.27,0.04-0.36-0.02
		c-0.34-0.24-0.65-0.5-1.03-0.79C335.92,13.63,336.56,13.38,337.23,13.13z"/>
	<path d="M94.02,19.56c0.51,0.45,0.9,0.83,1.19,1.37c0.37,0.68-0.34,1.01-0.22,1.56C94.59,22.35,94.14,20.97,94.02,19.56z"/>
	<path d="M265.25,15.87c-0.29-0.06-0.38-0.2-0.28-0.49c0.14-0.4,0.2-0.83,0.36-1.22c0.04-0.11,0.39-0.22,0.44-0.18
		c0.43,0.43,1,0.39,1.52,0.52c0.05,0.01,0.09,0.07,0.27,0.2c-0.27,0.1-0.48,0.25-0.64,0.21C265.91,14.68,265.5,14.87,265.25,15.87z"
		/>
	<path d="M320.76,13.96c0.12,0.42,0.3,0.76,0.29,1.1c-0.01,0.35-0.19,0.69-0.32,1.1c-0.11,0.03-0.29,0.1-0.48,0.11
		c-0.18,0.01-0.43,0.01-0.54-0.1c-0.08-0.08-0.01-0.36,0.07-0.51C320.07,15.13,320.38,14.62,320.76,13.96z"/>
	<path d="M23.02,43.02c-0.13-0.43-0.24-0.79-0.35-1.16c0.36-0.12,0.77-0.28,1.19-0.39c0.13-0.03,0.3,0.04,0.42,0.12
		c0.06,0.04,0.07,0.22,0.03,0.31c-0.15,0.35-0.27,0.74-0.53,0.99C23.62,43.06,23.24,43,23.02,43.02z"/>
	<path d="M32.1,25.98c0.16-0.32,0.22-0.65,0.42-0.8c0.69-0.51,1.27-0.3,1.53,0.53c0.08,0.25,0.03,0.5-0.34,0.46
		C33.21,26.12,32.7,26.05,32.1,25.98z"/>
	<path d="M292.58,33.78c0.06,0.38,0.12,0.66,0.13,0.95c0,0.09-0.16,0.22-0.27,0.25c-0.32,0.08-0.66,0.16-0.99,0.14
		c-0.16-0.01-0.42-0.2-0.44-0.34c-0.03-0.19,0.08-0.51,0.22-0.58C291.65,34.02,292.12,33.92,292.58,33.78z"/>
	<path d="M329.3,15.51c0.14-0.42,0.28-0.83,0.42-1.22c1,0.01,1.23,0.66,1.2,1.53C330.4,15.72,329.86,15.62,329.3,15.51z"/>
	<path d="M243.27,22.17c-0.18,0.57-0.34,1.08-0.49,1.59c-0.09,0.3-0.31,0.29-0.53,0.24c-0.23-0.05-0.41-0.17-0.36-0.46
		c0.04-0.23,0.06-0.47,0.1-0.7c0.05-0.29,0.21-0.48,0.51-0.52C242.72,22.28,242.95,22.23,243.27,22.17z"/>
	<path d="M335.88,24.89c0.12,0.13,0.3,0.24,0.35,0.4c0.18,0.48,0.42,0.97,0.44,1.46c0.02,0.35-0.26,0.73-0.42,1.08
		c-0.01,0.03-0.18-0.01-0.28-0.02c-0.19-0.01-0.39-0.02-0.58-0.03c0.21-0.45,0.5-0.89,0.6-1.36c0.1-0.47,0.24-1.02-0.23-1.45
		C335.81,24.95,335.85,24.92,335.88,24.89z"/>
	<path d="M76.34,42.81c-0.56-0.52-1.07-1.01-1.62-1.52c0.32-0.21,0.56-0.56,1-0.34C76.29,41.23,76.51,41.87,76.34,42.81z"/>
	<path d="M286.01,40.9c-0.2,0.15-0.4,0.3-0.59,0.46c-0.24,0.2-0.47,0.41-0.7,0.62c-0.14,0.14-0.21,0.49-0.49,0.22
		c-0.15-0.15-0.28-0.41-0.27-0.61c0.02-0.5,0.35-0.76,0.95-0.81c0.34-0.03,0.69-0.01,1.03-0.01
		C285.97,40.81,285.99,40.85,286.01,40.9z"/>
	<path d="M162.03,38.09c0.15,0.37,0.09,0.77-0.16,1.17c-0.26,0.43-0.62,0.47-0.93,0.08c-0.19-0.25-0.41-0.49-0.59-0.71
		C160.93,38.44,161.48,38.27,162.03,38.09z"/>
	<path d="M120.85,24.21c0.09-0.46,0.16-0.81,0.22-1.09c0.54,0.25,0.99,0.42,1.4,0.66c0.23,0.13,0.39,0.37,0.62,0.59
		C122.31,24.75,121.66,24.19,120.85,24.21z"/>
	<path d="M96.58,39.3c-0.24-0.19-0.46-0.38-0.73-0.6c0.43-0.36,0.82-0.68,1.23-1.03c0.25,0.12,0.55,0.27,0.9,0.45
		C97.51,38.52,97.04,38.91,96.58,39.3z"/>
	<path d="M258.17,35.2c0.07,0.66,0.14,1.32,0.2,1.98c-0.41,0.08-0.77,0.16-1.26,0.26c0.29-0.81,0.55-1.53,0.81-2.25
		C258,35.2,258.08,35.2,258.17,35.2z"/>
	<path d="M326.99,32.84c-0.22,0.45-0.47,0.98-0.75,1.57c-0.29-0.31-0.61-0.57-0.79-0.9c-0.1-0.18,0.05-0.5,0.1-0.75
		c0.01-0.02,0.14-0.03,0.22-0.03C326.17,32.76,326.56,32.8,326.99,32.84z"/>
	<path d="M233.86,39.91c-0.89,0.09-1.79,0.19-2.68,0.28c-0.01-0.04-0.02-0.09-0.03-0.13c0.48-0.33,0.97-0.66,1.41-0.97
		c0.45,0.21,0.88,0.42,1.31,0.63C233.86,39.79,233.86,39.85,233.86,39.91z"/>
	<path d="M34.98,23.81c0.47-0.04,0.62,0.24,0.72,0.64c0.1,0.42,0.26,0.83,0.4,1.28c-0.12,0.05-0.27,0.11-0.4,0.17
		C34.99,25.32,34.71,24.49,34.98,23.81z"/>
	<path d="M93.91,37.44c0.16-0.34,0.35-0.72,0.55-1.13c0.42,0.26,0.88,0.53,1.39,0.84c-0.24,0.21-0.44,0.39-0.66,0.56
		c-0.05,0.04-0.15,0.02-0.23,0C94.62,37.63,94.27,37.53,93.91,37.44z"/>
	<path d="M37.99,40.98c0.07-0.82,0.78-0.76,1.31-0.91c0.25-0.07,0.49,0.13,0.43,0.46c-0.05,0.25-0.14,0.5-0.21,0.76
		C38.99,41.18,38.48,41.08,37.99,40.98z"/>
	<path d="M65.74,22.59c-0.1-0.09-0.14-0.13-0.18-0.16c-0.52-0.41-0.51-0.41-0.22-1c0.21-0.43,0.4-0.87,0.61-1.3
		c0.04-0.07,0.11-0.12,0.2-0.22C66.32,20.86,66.06,21.7,65.74,22.59z"/>
	<path d="M237.14,27.66c-0.04-0.48,0.27-0.94,0.72-1.01c0.17-0.02,0.44,0.04,0.52,0.16c0.22,0.31,0.22,0.68-0.06,0.97
		c-0.16,0.17-0.36,0.3-0.62,0.06C237.58,27.72,237.34,27.72,237.14,27.66z"/>
	<path d="M322.57,28.74c0.51,0.01,0.99-0.78,1.46-0.03c-0.18,0.37-0.37,0.74-0.61,1.24C323.07,30.1,322.79,29.79,322.57,28.74z"/>
	<path d="M233.25,33.52c-0.4-0.17-0.81-0.35-1.23-0.53c0.36-0.2,0.71-0.41,1.07-0.59c0.08-0.04,0.21-0.03,0.3,0.01
		c0.31,0.13,0.62,0.28,0.9,0.4C233.97,33.03,233.62,33.26,233.25,33.52z"/>
	<path d="M280.74,22.81c-0.94-0.22-1.12-0.9-1.08-1.73c0.52-0.24,0.65,0.31,0.94,0.57C280.99,22.01,280.74,22.42,280.74,22.81z"/>
	<path d="M17.83,17.78c0.21,0.04,0.43,0.08,0.64,0.12c0.2,0.04,0.4,0.08,0.6,0.13c-0.07,0.62-0.09,1.22,0.42,1.71
		c-0.59,0.08-0.56,0.07-0.79-0.44c-0.17-0.36-0.43-0.68-0.66-1.02c-0.1-0.15-0.2-0.29-0.3-0.43C17.77,17.83,17.8,17.81,17.83,17.78z
		"/>
	<path d="M180.11,17.93c-0.14,0.65-0.31,0.75-0.92,0.52c-0.07-0.03-0.15-0.02-0.21-0.06c-0.16-0.11-0.39-0.21-0.43-0.36
		c-0.04-0.15,0.1-0.37,0.22-0.51c0.2-0.2,0.43-0.18,0.67,0C179.65,17.68,179.89,17.8,180.11,17.93z"/>
	<path d="M274.52,18.14c-0.14,0.02-0.31,0.1-0.42,0.05c-0.55-0.25-1.08-0.54-1.73-0.87c0.58-0.23,1-0.39,1.46-0.57
		c-0.04,0.59,0.17,0.99,0.67,1.23C274.51,18.03,274.51,18.08,274.52,18.14z"/>
	<path d="M71.72,41.65c-0.52-0.43-1.03-0.86-1.58-1.32c0.19-0.21,0.36-0.42,0.56-0.64c0.82,0.36,0.77,1.23,1.1,1.87
		C71.78,41.58,71.75,41.62,71.72,41.65z"/>
	<path d="M287.46,33.29c-0.4,0.16-0.81,0.33-1.21,0.49c-0.26,0.1-0.41,0.06-0.45-0.27c-0.05-0.31-0.19-0.6-0.31-0.97
		c0.67,0.21,1.33,0.41,1.98,0.62C287.47,33.2,287.46,33.24,287.46,33.29z"/>
	<path d="M66.73,28.7c0.36-0.3,0.67-0.57,0.97-0.83c0.2,0.24,0.42,0.52,0.64,0.8C67.89,29.44,67.21,29.43,66.73,28.7z"/>
	<path d="M144.4,35.16c0-0.42,0-0.81,0-1.19c0.43,0.08,0.9,0.17,1.37,0.26c-0.03,0.18-0.08,0.44-0.14,0.75
		C145.26,35.03,144.87,35.09,144.4,35.16z"/>
	<path d="M190.67,36.32c-0.18,0.54-0.32,0.98-0.46,1.38c-0.12-0.13-0.31-0.33-0.47-0.54c-0.28-0.38-0.3-0.86-0.06-1.04
		C190.01,35.89,190.37,35.98,190.67,36.32z"/>
	<path d="M207.93,18.8c0.15-0.18,0.27-0.42,0.47-0.52c0.66-0.35,0.79-0.6,0.54-1.3c-0.04-0.11-0.09-0.21-0.15-0.33
		c0.22-0.14,0.42-0.27,0.66-0.43c0,0.65,0,1.25,0,1.84c-0.49,0.26-0.97,0.53-1.46,0.79C207.97,18.83,207.95,18.82,207.93,18.8z"/>
	<path d="M157.92,16.26c-0.08,0.42-0.17,0.95-0.27,1.51c-0.51-0.24-1.01-0.48-1.52-0.72C156.73,16.78,157.36,16.5,157.92,16.26z"/>
	<path d="M213.42,38.11c-0.37-0.08-0.71-0.18-1.07-0.23c-0.48-0.07-0.28-0.4-0.25-0.64c0.03-0.24,0.15-0.43,0.45-0.29
		c0.01,0.01,0.03,0.02,0.04,0.02C213.62,37.31,213.42,37.02,213.42,38.11z"/>
	<path d="M84.08,43.26c-0.26-0.26-0.5-0.5-0.74-0.75c0.15-0.17,0.39-0.45,0.62-0.74c0.19-0.23,0.39-0.34,0.7-0.13
		C84.46,42.2,84.25,42.77,84.08,43.26z"/>
	<path d="M268.37,15.86c0.46-0.19,0.84-0.39,1.25-0.49c0.11-0.03,0.33,0.22,0.42,0.39c0.06,0.11,0.04,0.33-0.03,0.43
		c-0.22,0.33-0.52,0.36-0.85,0.13C268.93,16.17,268.68,16.04,268.37,15.86z"/>
	<path d="M46.12,42.97c-0.28,0-0.59,0-0.85,0c0.15-0.34,0.3-0.67,0.44-1.01c0.13-0.31,0.32-0.44,0.63-0.24
		c0.15,0.1,0.28,0.21,0.4,0.29C46.52,42.36,46.32,42.67,46.12,42.97z"/>
	<path d="M135.25,37.48c0.62,0.18,1.2,0.25,1.76-0.12c0.31-0.21,0.44-0.14,0.44,0.25c-0.87-0.08-1.54,0.19-1.79,1.11
		C134.93,38.24,134.88,38.08,135.25,37.48z"/>
	<path d="M117.19,35.09c0.52,0.34,1,0.66,1.5,0.99c-0.58,0.56-0.61,0.57-1.16,0.18C117.23,36.05,117.04,35.45,117.19,35.09z"/>
	<path d="M100.12,26.12c-0.2-0.08-0.41-0.16-0.76-0.31c0.64-0.46,0.59-1.42,1.64-1.46C100.69,24.96,100.43,25.49,100.12,26.12z"/>
	<path d="M265.5,17.75c0.38-0.08,0.69-0.25,0.91-0.17c0.19,0.06,0.26,0.42,0.41,0.63c0.13,0.2,0.3,0.37,0.42,0.57
		c0.05,0.08,0.02,0.21,0.03,0.31c-0.11-0.01-0.25,0.03-0.31-0.03C266.49,18.66,266.04,18.23,265.5,17.75z"/>
	<path d="M136.83,40.05c-0.58-0.34-0.28-0.82-0.12-1.19c0.09-0.21,0.47-0.3,0.72-0.44C138.03,39.38,137.04,39.55,136.83,40.05z"/>
	<path d="M100.41,33.9c-0.58,0.15-1.06,0.41-1.11,0.94c-0.19-0.34-0.43-0.79-0.69-1.26C99.21,33.58,99.85,33.32,100.41,33.9z"/>
	<path d="M240.2,26.42c0.45-0.11,0.86-0.22,1.4-0.36c-0.54,0.55-0.62,1.36-1.53,1.51C240.12,27.13,240.16,26.78,240.2,26.42z"/>
	<path d="M231.04,35.99c0.08,0.24,0.19,0.53,0.26,0.82c0.06,0.26-0.08,0.42-0.33,0.33c-0.34-0.12-0.67-0.28-1-0.45
		c-0.07-0.04-0.14-0.18-0.12-0.25c0.02-0.07,0.13-0.14,0.22-0.17C230.37,36.17,230.67,36.09,231.04,35.99z"/>
	<path d="M113.4,29.8c-0.12-0.34,0.62-0.85,1.15-0.73c0.26,0.06,0.5,0.14,0.78,0.22c-0.06,0.2-0.13,0.4-0.17,0.51
		C114.56,29.8,113.99,29.8,113.4,29.8z"/>
	<path d="M221.53,19.41c0,0.18,0,0.38,0,0.59c-0.42-0.11-0.85-0.17-1.25-0.33c-0.15-0.06-0.32-0.37-0.28-0.49
		c0.06-0.2,0.28-0.38,0.57-0.22C220.88,19.12,221.2,19.25,221.53,19.41z"/>
	<path d="M165.21,40.31c0.12-0.44,0.19-0.82,0.32-1.17c0.06-0.17,0.22-0.36,0.37-0.41c0.08-0.03,0.31,0.17,0.38,0.32
		c0.07,0.13,0.07,0.4-0.01,0.48C165.97,39.81,165.77,40.28,165.21,40.31z"/>
	<path d="M229.64,39.03c-0.09-0.41-0.2-0.79-0.25-1.17c-0.03-0.2,0.08-0.29,0.31-0.17c0.39,0.19,0.8,0.35,1.21,0.53
		C230.51,38.47,230.09,38.75,229.64,39.03z"/>
	<path d="M165.62,20.31c-0.16-0.47-0.32-0.96-0.47-1.39c0.37,0.14,0.78,0.26,1.16,0.45c0.18,0.09,0.28,0.32,0.43,0.49
		C166.35,20.03,165.98,20.17,165.62,20.31z"/>
	<path d="M34.21,29.97c-0.07,0.19-0.13,0.34-0.21,0.55c-0.78-0.56-1.58-1.09-2.63-1.12c0.04-0.29,0.08-0.55,0.13-0.87
		C32.27,29.3,33.06,29.96,34.21,29.97z"/>
	<path d="M30.96,38.36c-0.67,0.46-0.74,1.43-1.72,1.52c0.19-0.43,0.31-0.83,0.53-1.17C30.01,38.32,30.43,38.31,30.96,38.36z"/>
	<path d="M285.17,16.08c0.07-0.05,0.17-0.11,0.25-0.19c0.51-0.45,0.71-0.47,1.27-0.1c0.22,0.14,0.42,0.3,0.72,0.51
		c-0.19,0.06-0.31,0.14-0.41,0.13C286.4,16.33,285.79,16.2,285.17,16.08z"/>
	<path d="M212.34,39.23c0.21,0.25,0.41,0.5,0.65,0.78c-0.62,0.37-0.61,1.04-0.74,1.62c-0.08-0.63-0.17-1.26-0.23-1.89
		c-0.01-0.17,0.1-0.35,0.16-0.53C212.23,39.22,212.28,39.23,212.34,39.23z"/>
	<path d="M279.16,41.65c0.31,0.54,0.56,0.96,0.83,1.42c-0.46,0-0.9,0-1.41,0C278.76,42.63,278.93,42.2,279.16,41.65z"/>
	<path d="M176.9,40.14c-0.21-0.45-0.37-0.78-0.52-1.12c0.29-0.08,0.54-0.18,0.81-0.23c0.14-0.03,0.33-0.01,0.43,0.07
		c0.06,0.05,0.05,0.28-0.02,0.38C177.41,39.53,177.17,39.8,176.9,40.14z"/>
	<path d="M169.25,35.04c-0.37-0.02-0.6-0.04-0.84-0.04c-0.25,0.01-0.49,0.05-0.74,0.06c-0.08,0-0.16-0.03-0.24-0.05
		c0.04-0.08,0.06-0.18,0.12-0.24c0.24-0.2,0.49-0.37,0.73-0.56c0.2-0.17,0.35-0.18,0.49,0.07C168.89,34.5,169.03,34.7,169.25,35.04z
		"/>
	<path d="M271.18,16.05c-0.06-0.23-0.1-0.45-0.17-0.65c-0.08-0.2-0.19-0.39-0.3-0.61c0.22-0.21,0.43-0.49,0.76-0.19
		C271.93,15.03,271.84,15.49,271.18,16.05z"/>
	<path d="M162.09,20.51c0.07,0.22,0.1,0.35,0.13,0.43c-0.62,0.26-1.23,0.52-1.97,0.83c0.29-0.38,0.47-0.75,0.76-0.95
		C161.3,20.63,161.71,20.61,162.09,20.51z"/>
	<path d="M26.64,42.99c-0.54,0-1.07,0-1.66,0c0.12-0.29,0.24-0.56,0.33-0.77c0.37,0.09,0.73,0.15,1.06,0.27
		c0.16,0.06,0.27,0.24,0.4,0.37C26.72,42.9,26.68,42.94,26.64,42.99z"/>
	<path d="M286.84,34.57c0.05,0.55,0.09,0.99,0.14,1.53c-0.35-0.33-0.92-0.2-0.99-0.78C285.9,34.65,286.54,34.89,286.84,34.57z"/>
	<path d="M70.64,35.49c0-0.12-0.03-0.25,0.01-0.36c0.25-0.74,0.28-1.43-0.22-2.1c-0.06-0.09,0-0.3,0.05-0.43
		c0.08-0.23,0.19-0.45,0.28-0.68c0.06,0.02,0.1,0.03,0.1,0.04c0.04,0.64,0.08,1.28,0.1,1.91c0.01,0.41,0.02,0.81-0.01,1.22
		c-0.01,0.15-0.11,0.29-0.16,0.44C70.74,35.51,70.69,35.5,70.64,35.49z"/>
	<path d="M155.02,15.38c0.47,0.08,0.96,0.17,1.44,0.26c0,0.04,0,0.09,0,0.13c-0.57,0.22-1.14,0.45-1.71,0.67
		C154.84,16.09,154.93,15.75,155.02,15.38z"/>
	<path d="M133.22,38.89c-1.15,0.22-1.78,0.02-2.11-1.06C131.83,38.18,132.52,38.54,133.22,38.89z"/>
	<path d="M224.06,28.42c-0.39-0.1-0.79-0.21-1.23-0.32c0.03-0.25,0.04-0.54,0.11-0.81c0.02-0.07,0.28-0.17,0.3-0.14
		c0.31,0.38,0.6,0.77,0.9,1.16C224.11,28.34,224.08,28.38,224.06,28.42z"/>
	<path d="M112.89,33.54c0.16,0.21,0.35,0.45,0.58,0.76c-0.33,0.09-0.6,0.17-0.87,0.24c-0.28,0.07-0.55,0.13-0.9,0.13
		C112.1,34.3,112.48,33.93,112.89,33.54z"/>
	<path d="M333.59,19.16c0.27,0.63,0.22,0.74-0.14,1.28c-0.17,0.25-0.21,0.59-0.32,0.92c-0.24-0.14-0.52-0.3-0.8-0.46
		C333.35,20.72,333.37,19.88,333.59,19.16z"/>
	<path d="M63.26,34.47c-0.44-0.7-0.25-1.43-0.3-2.15c0.22,0.04,0.41,0.07,0.62,0.11C63.48,33.11,63.37,33.77,63.26,34.47z"/>
	<path d="M228.94,31.54c-0.1-0.49-0.2-0.98-0.31-1.52c0.58-0.16,1.14-0.3,1.69-0.45c0.02,0.02,0.03,0.04,0.05,0.05
		c-0.07,0.05-0.15,0.15-0.22,0.15c-0.86,0.03-1.02,0.72-1.01,1.44c0,0.11,0,0.23,0,0.34C229.07,31.55,229,31.54,228.94,31.54z"/>
	<path d="M286.29,41.9c0.39,0.25,0.23,0.48,0.14,0.76c-0.22,0.67-0.75,0.37-1.24,0.35C285.56,42.64,285.92,42.28,286.29,41.9z"/>
	<path d="M212.25,26.66c-0.3,0.07-0.58,0.14-0.89,0.21c-0.21-0.48,0.1-0.89,0.15-1.32c0.13,0.05,0.33,0.06,0.38,0.14
		C212.04,25.98,212.12,26.29,212.25,26.66z"/>
	<path d="M258.49,42.54c-0.36-0.67-0.63-1.17-0.9-1.68c0.03-0.02,0.05-0.03,0.08-0.05c0.39,0.26,0.79,0.51,1.17,0.8
		c0.07,0.05,0.09,0.26,0.04,0.36C258.8,42.14,258.66,42.3,258.49,42.54z"/>
	<path d="M70.47,37.1c-0.39,0.21-0.84,0.45-1.3,0.7c-0.02-0.02-0.04-0.04-0.06-0.06c0.31-0.46,0.62-0.91,0.93-1.37
		C70.37,36.46,70.64,36.59,70.47,37.1z"/>
	<path d="M33.69,31.99c-0.14,0.43-0.27,0.83-0.44,1.33c-0.25-0.45-0.44-0.76-0.6-1.09c-0.04-0.07-0.04-0.21,0-0.27
		c0.03-0.05,0.16-0.06,0.25-0.05C33.11,31.91,33.33,31.94,33.69,31.99z"/>
	<path d="M265.44,27.69c0.16,0.16,0.45,0.33,0.43,0.46c-0.03,0.2-0.25,0.39-0.42,0.54c-0.16,0.14-0.37,0.24-0.56,0.34
		c-0.07,0.04-0.17,0.03-0.25,0.05c0.02-0.09,0.01-0.2,0.06-0.27C264.92,28.45,265.16,28.1,265.44,27.69z"/>
	<path d="M128.83,40.35c-0.01-0.22-0.06-0.46-0.02-0.67c0.11-0.54,0.26-1.08,0.39-1.63c0.25,0.13,0.4,0.32,0.27,0.69
		c-0.18,0.52-0.32,1.06-0.47,1.59C128.94,40.34,128.89,40.35,128.83,40.35z"/>
	<path d="M285.87,25.6c-0.18,0.08-0.38,0.17-0.58,0.24c-0.13,0.04-0.28,0.05-0.42,0.07c0.01-0.19-0.04-0.45,0.06-0.57
		c0.21-0.25,0.5-0.43,0.82-0.68C285.79,25.01,285.83,25.27,285.87,25.6z"/>
	<path d="M45.44,18.13c0.58,0.47,1.03,0.84,1.49,1.22c-0.62,0.13-1.21-0.02-1.42-0.43C45.41,18.72,45.46,18.45,45.44,18.13z"/>
	<path d="M57.34,29.72c0.37-0.03,0.7-0.05,1.05-0.08c0.22,0.34-0.07,0.81-0.76,1.1c-0.03-0.17-0.06-0.34-0.1-0.5
		C57.48,30.07,57.41,29.91,57.34,29.72z"/>
	<path d="M224.72,33.25c0.44,0.6,0.88,1.21,1.38,1.89c-0.51-0.5-1.37-0.45-1.49-1.3c-0.03-0.2,0-0.41,0-0.61
		C224.65,33.24,224.68,33.24,224.72,33.25z"/>
	<path d="M221.65,40.42c-0.55,0.47-0.31,1.08-0.42,1.7c-0.43-0.65-0.43-1.31-0.4-2.03C221.1,40.19,221.34,40.29,221.65,40.42z"/>
	<path d="M269.18,28.88c-0.33-0.04-0.67-0.07-1.06-0.11c0.15-0.41,0.28-0.77,0.45-1.24c0.28,0.48,0.49,0.84,0.71,1.21
		C269.24,28.78,269.21,28.83,269.18,28.88z"/>
	<path d="M225.73,28.51c0.44-0.6,1-0.14,1.53-0.27c0.01,0.15,0.02,0.28,0.04,0.46C226.75,28.61,226.17,29.27,225.73,28.51z"/>
	<path d="M91.87,31.29c0.21-0.38,0.42-0.77,0.63-1.17c0.16,0.1,0.32,0.15,0.4,0.25c0.08,0.11,0.17,0.36,0.11,0.41
		c-0.28,0.29-0.56,0.61-1.01,0.62C91.96,31.36,91.92,31.32,91.87,31.29z"/>
	<path d="M28.77,37.05c0.16,0.24,0.3,0.44,0.41,0.61c-0.22,0.4-0.42,0.77-0.64,1.16c-0.07-0.53-0.13-1.04-0.2-1.59
		C28.45,37.18,28.59,37.12,28.77,37.05z"/>
	<path d="M64.17,28.58c0.16,0.09,0.26,0.14,0.36,0.21c0.31,0.21,0.61,0.43,0.94,0.66c-0.63,0.19-1.24,0.43-1.47-0.54
		C64.01,28.87,64.08,28.74,64.17,28.58z"/>
	<path d="M36.1,31.1c0.04,0.24,0.12,0.48,0.1,0.72c-0.02,0.21-0.16,0.41-0.25,0.61c-0.17-0.08-0.35-0.15-0.5-0.26
		c-0.11-0.08-0.17-0.23-0.23-0.32C35.52,31.59,35.82,31.34,36.1,31.1z"/>
	<path d="M331.36,23.74c0.64,0.47,0.64,1.16,0.91,1.76C331.58,25.39,331.32,24.9,331.36,23.74z"/>
	<path d="M62.46,29.87c-0.05,0.33-0.06,0.63-0.15,0.9c-0.05,0.14-0.24,0.24-0.36,0.36c-0.11-0.13-0.3-0.25-0.32-0.4
		C61.55,30.22,61.71,30.08,62.46,29.87z"/>
	<path d="M317.97,28.81c0.28,0.24,0.57,0.48,0.85,0.72c-0.21,0.23-0.42,0.45-0.59,0.64c-0.15-0.27-0.3-0.49-0.4-0.73
		c-0.06-0.16-0.05-0.34-0.07-0.51C317.83,28.88,317.9,28.85,317.97,28.81z"/>
	<path d="M208.21,38.56c-0.1,0.25-0.21,0.52-0.33,0.81c-0.23-0.33-0.48-0.67-0.75-1.06c0.17-0.13,0.34-0.27,0.53-0.42
		C207.84,38.1,208.01,38.31,208.21,38.56z"/>
	<path d="M112.85,25.13c0.59,0.38,1.19,0.77,1.78,1.15C113.54,26.71,113.25,25.83,112.85,25.13z"/>
	<path d="M34.25,28.79c-0.39,0.26-1.24-0.11-1.84-0.87C33.1,28.05,33.82,28.1,34.25,28.79z"/>
	<path d="M181.29,41.76c0.42,0.18,0.75,0.32,1.06,0.45c0.03,0.23,0.07,0.44,0.1,0.66C181.64,42.87,181.55,42.8,181.29,41.76z"/>
	<path d="M285,21.21c-0.3,0.36-0.59,0.71-0.89,1.06c-0.29-0.21-0.41-0.54-0.25-0.82C284.11,21.03,284.54,21.05,285,21.21z"/>
	<path d="M314.95,37.91c-0.57-0.38-1.14-0.77-1.71-1.15c0.02-0.07,0.04-0.14,0.06-0.21c0.21,0,0.43-0.04,0.63,0.01
		c0.24,0.06,0.37,0.21,0.44,0.51c0.06,0.28,0.38,0.5,0.58,0.75C314.95,37.86,314.95,37.88,314.95,37.91z"/>
	<path d="M30.43,25.87c0.16-0.39,0.31-0.75,0.46-1.1c0.5-0.01,0.54,0.03,0.4,0.48c-0.03,0.11-0.06,0.22-0.1,0.33
		C31.01,26.12,30.94,26.15,30.43,25.87z"/>
	<path d="M273.74,20.75c-0.21,1-0.29,1.05-1.06,0.78c0-0.17,0-0.34,0-0.56C273.02,20.9,273.36,20.83,273.74,20.75z"/>
	<path d="M330.53,26.09c-0.39,0.23-0.95,0.25-1.07,0.04c-0.12-0.23-0.01-0.64,0.2-0.73C329.9,25.3,330.37,25.66,330.53,26.09z"/>
	<path d="M58.37,25.06c-0.21-0.12-0.43-0.26-0.65-0.38c0.13-0.87,0.38-1.12,0.8-0.92C58.47,24.2,58.42,24.61,58.37,25.06z"/>
	<path d="M264.19,40.91c0.34,0.05,0.61,0.09,0.68,0.51c0.03,0.17,0.35,0.29,0.55,0.46c-0.27,0.26-0.61,0.14-0.92,0.01
		C264.02,41.69,264.27,41.26,264.19,40.91z"/>
	<path d="M58.42,26.31c-0.38,0.22-0.7,0.4-1.03,0.59c-0.19-0.23-0.46-0.41-0.27-0.74c0.06-0.1,0.24-0.22,0.32-0.2
		C57.76,26.04,58.05,26.17,58.42,26.31z"/>
	<path d="M110.4,42.83c-0.4-0.06-0.81-0.08-1.19-0.21c-0.07-0.02-0.01-0.44-0.01-0.68c0.04-0.02,0.09-0.05,0.13-0.07
		c0.37,0.24,0.75,0.49,1.12,0.73C110.43,42.68,110.41,42.76,110.4,42.83z"/>
	<path d="M269.18,21.7c0.41,0.59,0.4,0.66-0.21,1.44c-0.1-0.17-0.24-0.3-0.25-0.44C268.67,22.15,268.83,21.84,269.18,21.7z"/>
	<path d="M246.81,15.27c-0.43,0.34-0.86,0.68-1.3,1.02c-0.32-0.29-0.27-0.68,0.16-0.82c0.36-0.12,0.72-0.21,1.08-0.32
		C246.77,15.2,246.79,15.23,246.81,15.27z"/>
	<path d="M280.12,29.6c-0.45-0.22-0.9-0.44-1.46-0.71c0.36-0.16,0.6-0.27,0.92-0.41c0.22,0.34,0.44,0.68,0.65,1.02
		C280.2,29.54,280.16,29.57,280.12,29.6z"/>
	<path d="M225.96,32.2c0.52,0.48,0.55,0.59,0.36,1.55c-0.29-0.45-0.53-0.83-0.78-1.23C225.7,32.39,225.82,32.3,225.96,32.2z"/>
	<path d="M284.56,31.55c0.23-0.24,0.46-0.48,0.7-0.72c0.26,0.22,0.56,0.48,0.93,0.81C285.57,31.6,285.05,31.58,284.56,31.55z"/>
	<path d="M13.68,25.12c0.06-0.09,0.17-0.23,0.32-0.44c0.23,0.45,0.43,0.85,0.65,1.27c-0.13,0.12-0.26,0.24-0.4,0.36
		C14.07,25.93,13.89,25.55,13.68,25.12z"/>
	<path d="M309.01,27.01c0.48,0.26,0.96,0.52,1.49,0.82c-0.28,0.17-0.48,0.29-0.67,0.4c-0.3-0.36-0.6-0.73-0.9-1.09
		C308.96,27.1,308.99,27.06,309.01,27.01z"/>
	<path d="M239.11,31.87c0.54,0.32,1.1,0.65,1.67,0.99c-0.09,0.21-0.18,0.44-0.27,0.66C240.03,32.96,239.57,32.41,239.11,31.87z"/>
	<path d="M319.8,42.66c-0.45,0.13-0.9,0.25-1.36,0.38c-0.05-0.27-0.09-0.46-0.15-0.78c0.52,0.09,1,0.17,1.48,0.24
		C319.77,42.56,319.78,42.61,319.8,42.66z"/>
	<path d="M186.66,18.79c-0.37,0-0.69-0.02-1.02,0.01c-0.37,0.03-0.48-0.14-0.45-0.47C185.97,18.14,186.43,18.27,186.66,18.79z"/>
	<path d="M97.36,29.38c0.6-0.08,1.18-0.16,1.88-0.26c-0.16,0.2-0.24,0.41-0.38,0.46C97.93,29.89,97.85,29.87,97.36,29.38z"/>
	<path d="M231.69,34.05c-0.49,0.48-0.97,0.55-1.3,0.19C230.67,33.64,230.98,33.58,231.69,34.05z"/>
	<path d="M67.65,34.66c1.17-0.21,1.13,0.63,0.77,1.54c-0.07-0.25-0.11-0.55-0.24-0.81C68.05,35.13,67.84,34.91,67.65,34.66z"/>
	<path d="M281.07,39.77c0.7,0.36,0.8,0.78,0.38,1.23c-0.1-0.06-0.21-0.11-0.32-0.18c-0.1-0.06-0.18-0.14-0.29-0.23
		C280.92,40.32,280.99,40.06,281.07,39.77z"/>
	<path d="M108.69,39.44c0.16-0.41,0.38-0.45,0.73-0.25c0.25,0.15,0.54,0.22,0.82,0.33C109.67,39.89,109.51,39.88,108.69,39.44z"/>
	<path d="M118.06,37.91c0.5,0.29,0.97,0.56,1.45,0.83C118.7,39.17,118.66,39.3,118.06,37.91z"/>
	<path d="M319.84,28.86c-0.26-0.31-0.51-0.61-0.77-0.92c0.37-0.42,0.76-0.13,0.9,0.04c0.14,0.17,0.01,0.57,0,0.86
		C319.93,28.85,319.88,28.85,319.84,28.86z"/>
	<path d="M287.62,26.08c-0.15,0.56-1.29,1.04-1.93,0.82C286.3,26.65,286.9,26.39,287.62,26.08z"/>
	<path d="M115.55,15.61c-0.07-0.24-0.01-0.36,0.28-0.42c0.73-0.15,0.77-0.15,1.12,0.56C116.48,15.7,116.02,15.66,115.55,15.61z"/>
	<path d="M280.92,25.42c0.05-0.34,0.11-0.67,0.16-1.04c0.24,0.1,0.48,0.19,0.71,0.29C281.66,25.39,281.61,25.43,280.92,25.42z"/>
	<path d="M64.47,36.78c-0.05,0.17-0.07,0.34-0.15,0.49c-0.1,0.19-0.25,0.36-0.38,0.53c-0.07,0.09-0.17,0.16-0.26,0.24
		c-0.07-0.12-0.18-0.23-0.21-0.36c-0.02-0.1,0.01-0.27,0.09-0.33c0.24-0.21,0.51-0.39,0.77-0.57
		C64.38,36.79,64.43,36.79,64.47,36.78z"/>
	<path d="M133.75,37.96c-0.48-0.21-0.94-0.42-1.4-0.62c0.01-0.03,0.02-0.06,0.03-0.09c0.35,0,0.7,0,1.06,0
		C133.92,37.26,134.03,37.47,133.75,37.96z"/>
	<path d="M119.92,32.5c0.06,0.65,0.15,1.3,0.18,1.95c0.01,0.17-0.13,0.35-0.21,0.53c-0.07-0.01-0.14-0.03-0.21-0.04
		c0.02-0.25,0.06-0.5,0.07-0.75c0.02-0.34,0.02-0.69,0.02-1.03c0-0.22,0-0.44,0-0.66C119.82,32.5,119.87,32.5,119.92,32.5z"/>
	<path d="M322.93,14.86c0.15-0.02,0.28-0.07,0.38-0.04c0.16,0.04,0.41,0.11,0.44,0.22c0.05,0.21,0.05,0.5-0.06,0.66
		c-0.11,0.17-0.39,0.22-0.51-0.1C323.1,15.37,323.01,15.12,322.93,14.86z"/>
	<path d="M184.89,37.29c0.01,0.53-0.16,0.69-0.84,0.82C183.94,37.23,183.97,37.2,184.89,37.29z"/>
	<path d="M40.82,37.21c0.49,0.38,0.99,0.75,1.54,1.17c-0.37,0.03-0.65,0.06-0.85,0.07c-0.26-0.4-0.5-0.78-0.75-1.17
		C40.78,37.26,40.8,37.24,40.82,37.21z"/>
	<path d="M97.51,32.46c-0.39-0.61-0.4-0.87-0.02-1.22c0.08,0.11,0.15,0.22,0.23,0.32C98.2,32.15,98.2,32.15,97.51,32.46z"/>
	<path d="M141.12,38.07c-0.27,0-0.53,0-0.87,0c0.1-0.35,0.19-0.65,0.28-0.95C141.2,37.47,141.23,37.53,141.12,38.07z"/>
	<path d="M278.76,14.71c-0.59,0.27-1.16,0.56-1.35,1.27c0.11-0.43,0.18-0.86,0.33-1.27C277.86,14.4,278.36,14.41,278.76,14.71z"/>
	<path d="M227.5,22.81c0.24-0.37,0.47-0.72,0.7-1.07c0.39,0.14,0.36,0.31-0.19,1.26C227.84,22.94,227.68,22.88,227.5,22.81z"/>
	<path d="M37.4,32.24c0.23-0.29,0.45-0.58,0.72-0.92c0.18,0.27,0.31,0.47,0.48,0.73c-0.39,0.13-0.74,0.24-1.09,0.36
		C37.47,32.35,37.43,32.3,37.4,32.24z"/>
	<path d="M117.8,18.3c-0.36-0.49-0.71-0.97-1.05-1.44C117.76,17.12,117.96,17.38,117.8,18.3z"/>
	<path d="M111.5,14.64c0.23-0.77,0.27-0.79,1.2-0.65C112.59,14.39,112.22,14.6,111.5,14.64z"/>
	<path d="M324.41,41.56c-0.18-0.56-0.36-1.14-0.57-1.81c0,0,0.09-0.08,0.16-0.14C324.41,39.62,324.66,41.05,324.41,41.56z"/>
	<path d="M281.21,20.8c0.64-0.35,1.25-0.69,1.87-1.03c0.02,0.02,0.04,0.04,0.06,0.05c-0.11,0.11-0.2,0.25-0.33,0.32
		c-0.75,0.4-0.91,0.54-1.22,1.1C281.47,21.09,281.35,20.95,281.21,20.8z"/>
	<path d="M145.06,37.96c-0.02-0.49,0.25-0.78,0.57-1.05c0.52,0.69,0.51,0.7-0.3,0.97C145.25,37.9,145.17,37.93,145.06,37.96z"/>
	<path d="M328.69,14.21c-0.2,0.46-0.4,0.91-0.6,1.37c-0.04-0.01-0.08-0.03-0.11-0.04c0-0.42,0-0.84,0-1.29
		c0.17-0.04,0.38-0.08,0.59-0.12C328.61,14.15,328.65,14.18,328.69,14.21z"/>
	<path d="M281.74,29.53c-0.55-0.56,0.11-0.95,0.12-1.44C282.25,28.55,282.2,29.12,281.74,29.53z"/>
	<path d="M215.1,37.6c0.55-0.13,1.06-0.25,1.65-0.39c-0.6,0.38-1.13,0.7-1.65,1.03C215.1,38.01,215.1,37.77,215.1,37.6z"/>
	<path d="M69.91,19.08c0.49,0.33,0.07,0.7,0.15,1.02c-0.06,0.02-0.08,0.04-0.11,0.04c-0.19,0-0.37-0.01-0.56-0.02
		c0.08-0.21,0.14-0.43,0.23-0.63C69.69,19.35,69.8,19.23,69.91,19.08z"/>
	<path d="M15.92,19.75c-0.06-0.77,0.17-1.25,0.67-1.37C16.65,18.85,16.29,19.59,15.92,19.75z"/>
	<path d="M74.76,18.65c0.1,0.21,0.16,0.34,0.23,0.48c-0.47,0.03-0.83,0.6-1.44,0.22C73.98,19.11,74.35,18.89,74.76,18.65z"/>
	<path d="M83.44,19.3c-0.33-0.18-0.67-0.37-1.04-0.57c0.11-0.19,0.21-0.38,0.37-0.66c0.29,0.43,0.53,0.79,0.77,1.14
		C83.5,19.24,83.47,19.27,83.44,19.3z"/>
	<path d="M283.29,17.41c-0.26-0.24-0.52-0.48-0.77-0.72c0.01-0.06,0.03-0.12,0.04-0.18c0.21-0.03,0.56-0.15,0.6-0.08
		c0.15,0.27,0.2,0.59,0.29,0.89C283.4,17.35,283.34,17.38,283.29,17.41z"/>
	<path d="M113.96,40.17c-0.09,0.33-0.18,0.66-0.27,0.98c-0.25-0.07-0.49-0.13-0.86-0.24c0.4-0.32,0.73-0.57,1.05-0.83
		C113.91,40.12,113.94,40.14,113.96,40.17z"/>
	<path d="M160.24,13.97c0.27,0,0.53,0,0.86,0c-0.12,0.37-0.23,0.7-0.34,1.04c-0.04-0.01-0.08-0.01-0.11-0.02
		C160.51,14.66,160.38,14.33,160.24,13.97z"/>
	<path d="M168.01,37.33c0.06,0.09,0.16,0.23,0.23,0.34c-0.36,0.29-0.69,0.56-1.04,0.84c-0.06-0.1-0.16-0.25-0.2-0.32
		C167.34,37.9,167.66,37.63,168.01,37.33z"/>
	<path d="M187.59,42.92c-0.19-0.24-0.29-0.36-0.44-0.55c0.19-0.14,0.38-0.29,0.57-0.43c0.11,0.16,0.34,0.34,0.31,0.47
		C187.99,42.59,187.77,42.74,187.59,42.92z"/>
	<path d="M88.03,25.67c0.33,0.24,0.09,1.27-0.34,1.48C87.41,26.58,87.88,26.18,88.03,25.67z"/>
	<path d="M89.85,23.12c-0.43,0.15-0.77,0.28-1.09,0.39c-0.09-0.27-0.18-0.53-0.28-0.82C88.91,22.82,89.34,22.96,89.85,23.12z"/>
	<path d="M70.25,27.28c-0.26,0.17-0.53,0.35-0.85,0.55c-0.06-0.29-0.11-0.54-0.18-0.89c0.4,0.07,0.71,0.13,1.03,0.18
		C70.25,27.18,70.25,27.23,70.25,27.28z"/>
	<path d="M69.91,28.76c0.39-0.26,0.73-0.48,1.06-0.71c0.04,0.02,0.07,0.04,0.11,0.06c-0.04,0.2-0.03,0.44-0.14,0.57
		C70.74,28.92,70.24,28.94,69.91,28.76z"/>
	<path d="M62.38,35.05c-0.21,0.11-0.41,0.22-0.64,0.35c0.03-0.46,0.06-0.91,0.09-1.36c0.04-0.02,0.08-0.03,0.11-0.05
		C62.08,34.33,62.22,34.67,62.38,35.05z"/>
	<path d="M229.16,23.83c-0.22-0.1-0.24-0.27-0.1-0.55c0.18-0.35,0.25-0.74,0.41-1.1c0.07-0.15,0.22-0.27,0.36-0.34
		C229.61,22.5,229.39,23.15,229.16,23.83z"/>
	<path d="M113.51,22.32c-0.2-0.06-0.37-0.11-0.58-0.17c0.29-0.54,0.57-1.05,0.85-1.56c0.02,0.01,0.05,0.02,0.07,0.02
		c-0.09,0.27-0.22,0.53-0.27,0.81C113.52,21.69,113.53,21.98,113.51,22.32z"/>
	<path d="M91.96,19.27c-0.31,0.4-0.61,0.8-0.91,1.2c-0.32-0.38-0.31-0.42,0.09-0.73c0.25-0.19,0.49-0.39,0.74-0.58
		C91.9,19.2,91.93,19.24,91.96,19.27z"/>
	<path d="M336.87,41.89c0.23-0.24,0.87-0.15,0.93,0.14c0.02,0.09-0.1,0.27-0.2,0.31c-0.15,0.05-0.37,0.08-0.48,0
		C336.99,42.26,336.94,42.05,336.87,41.89z"/>
	<path d="M88.72,33.98c0.19-0.27,0.38-0.53,0.57-0.81c0.57,0.35,0.09,0.68,0.09,1.05C89.14,34.13,88.94,34.06,88.72,33.98z"/>
	<path d="M97.86,25.94c0.11,0.3,0.22,0.59,0.35,0.93c-0.29,0-0.5,0-0.72,0C97.34,26.46,97.48,26.16,97.86,25.94z"/>
	<path d="M20.31,42.99c-0.02-0.21-0.04-0.4-0.07-0.61c0.34-0.38,0.53-0.27,0.8,0.61C20.78,42.99,20.53,42.99,20.31,42.99z"/>
	<path d="M86.3,43.88c-0.43,0.23-0.85,0.22-1.23-0.11C85.44,43.3,85.66,43.31,86.3,43.88z"/>
	<path d="M166.88,15.49c0.5,0,0.88,0,1.37,0c-0.1,0.22-0.14,0.44-0.27,0.54c-0.07,0.06-0.3-0.05-0.45-0.13
		C167.33,15.81,167.16,15.68,166.88,15.49z"/>
	<path d="M166.7,42.59c0.28-0.25,0.57-0.51,0.85-0.76c0.04,0.03,0.07,0.05,0.11,0.08c-0.04,0.26-0.07,0.52-0.11,0.8
		c-0.28,0-0.52,0-0.77,0C166.74,42.67,166.72,42.63,166.7,42.59z"/>
	<path d="M28.09,36.24c-0.32,0-0.65,0-0.97,0c0.01-0.25,0.02-0.48,0.04-0.77c0.33,0.23,0.63,0.44,0.93,0.66
		C28.1,36.17,28.09,36.2,28.09,36.24z"/>
	<path d="M316.68,41.11c-0.23-0.3-0.45-0.59-0.68-0.88c0.03-0.03,0.07-0.07,0.1-0.1c0.36,0.18,0.73,0.37,1.13,0.57
		C317.03,40.84,316.88,40.96,316.68,41.11z"/>
	<path d="M287.79,29.25c-0.01-0.43,0.34-0.55,0.61-0.73c0.05,0.03,0.08,0.04,0.1,0.06c0.12,0.17,0.25,0.34,0.37,0.52
		c-0.19,0.02-0.38,0.03-0.57,0.05C288.14,29.17,287.98,29.21,287.79,29.25z"/>
	<path d="M186.36,16.07c-0.26,0-0.52,0-0.78,0c-0.03-0.26-0.06-0.5-0.09-0.74c0.03-0.03,0.05-0.07,0.08-0.1
		c0.29,0.24,0.58,0.48,0.87,0.72C186.42,16,186.39,16.04,186.36,16.07z"/>
	<path d="M134.23,41.7c-0.24-0.32-0.46-0.6-0.77-1c0.44,0.15,0.83,0.17,1.04,0.37C134.8,41.34,134.41,41.48,134.23,41.7z"/>
	<path d="M92.28,26.46c0.08-0.26,0.15-0.52,0.24-0.81c0.24,0.14,0.46,0.28,0.74,0.45c-0.32,0.19-0.59,0.35-0.85,0.51
		C92.37,26.56,92.32,26.51,92.28,26.46z"/>
	<path d="M331.53,42.16c0.16-0.08,0.28-0.14,0.39-0.2c0.47,0.74,0.54,0.66,0.15,1.14C331.9,42.78,331.72,42.48,331.53,42.16z"/>
	<path d="M238.84,37.71c0.09,0.13,0.16,0.24,0.24,0.36c-0.26,0.23-0.52,0.45-0.8,0.69C238.16,38.26,238.33,37.96,238.84,37.71z"/>
	<path d="M66.21,30.35c0.42,0.08,0.84,0.17,1.26,0.25C66.73,31.06,66.65,31.04,66.21,30.35z"/>
	<path d="M94.44,18.56c0.26-0.11,0.47-0.29,0.62-0.25c0.58,0.15,0.11,0.57,0.23,0.94C95.01,19.02,94.8,18.85,94.44,18.56z"/>
	<path d="M109.15,18.69c0.13,0.14,0.23,0.25,0.34,0.35c-0.07,0.21-0.14,0.41-0.21,0.62c-0.22-0.18-0.44-0.35-0.69-0.55
		C108.77,18.97,108.94,18.84,109.15,18.69z"/>
	<path d="M276.65,35.07c-0.15-0.85-0.15-0.85,0.77-1.17C277.13,34.36,276.89,34.72,276.65,35.07z"/>
	<path d="M224.24,20.11c-0.19,0.31-0.35,0.57-0.52,0.85c-0.11-0.06-0.22-0.12-0.36-0.19c0.15-0.3,0.29-0.57,0.44-0.87
		C223.96,19.98,224.1,20.04,224.24,20.11z"/>
	<path d="M291.33,40.45c-0.54,0.41-0.94,0.28-1.48-0.45C290.37,40.16,290.82,40.3,291.33,40.45z"/>
	<path d="M35.52,39.48c-0.2-0.28-0.35-0.51-0.51-0.74c0.19-0.13,0.38-0.25,0.62-0.41C35.69,38.73,35.78,39.07,35.52,39.48z"/>
	<path d="M238.56,24.29c-0.05-0.29-0.11-0.62-0.18-1.03c0.3,0.17,0.55,0.31,0.81,0.46C238.97,23.92,238.77,24.1,238.56,24.29z"/>
	<path d="M142.67,35.85c0.22-0.47,0.43-0.9,0.66-1.39C143.57,35.16,143.38,35.6,142.67,35.85z"/>
	<path d="M31.68,35.1c-0.56,0.13-1.03,0.24-1.54,0.36C30.59,34.88,31.18,34.72,31.68,35.1z"/>
	<path d="M315.25,25.7c0.11,0.37,0.22,0.72,0.38,1.23c-0.27-0.21-0.57-0.33-0.63-0.52C314.92,26.19,314.8,25.79,315.25,25.7z"/>
	<path d="M66.21,37.3c0.22,0.09,0.44,0.19,0.67,0.28c-0.07,0.26-0.13,0.5-0.21,0.79c-0.41-0.24-0.34-0.69-0.54-0.98
		C66.16,37.36,66.19,37.33,66.21,37.3z"/>
	<path d="M36.3,16.32c-0.02,0.15-0.04,0.29-0.07,0.43c-0.03,0.13-0.07,0.25-0.12,0.41c-0.15-0.26-0.69-0.29-0.38-0.76
		C35.86,16.2,36.03,16.02,36.3,16.32z"/>
	<path d="M30.6,36.38c0.47-0.09,0.89-0.16,1.31-0.23c0.02,0,0.05,0.06,0.08,0.1C31.51,36.78,31.39,36.79,30.6,36.38z"/>
	<path d="M286.62,27.99c0.49-0.2,0.93-0.37,1.38-0.55c0.01,0.02,0.02,0.03,0.03,0.05c-0.38,0.31-0.76,0.62-1.16,0.95
		C286.81,28.34,286.72,28.18,286.62,27.99z"/>
	<path d="M269.22,32.35c0.09-0.16,0.16-0.27,0.23-0.41c0.18,0.06,0.37,0.1,0.53,0.19c0.1,0.06,0.16,0.19,0.24,0.29
		c-0.14,0.05-0.28,0.15-0.41,0.14C269.62,32.54,269.45,32.44,269.22,32.35z"/>
	<path d="M263.54,27.98c0.34-0.31,0.37-0.89,0.96-0.87C264.21,27.93,263.92,28.22,263.54,27.98z"/>
	<path d="M63.06,25.71c0.47,0.2,0.87,0.38,1.31,0.56C63.84,26.61,63.21,26.35,63.06,25.71z"/>
	<path d="M118.55,40.58c0.28,0.04,0.57,0.08,0.89,0.12c0.01,0.11,0.02,0.23,0.04,0.44c-0.28-0.04-0.52-0.05-0.75-0.13
		c-0.12-0.04-0.2-0.2-0.31-0.31C118.48,40.67,118.51,40.62,118.55,40.58z"/>
	<path d="M272.97,19.07c0.18,0.2,0.35,0.39,0.57,0.65c-0.38,0.1-0.63,0.17-0.9,0.24C272.28,19.58,272.67,19.42,272.97,19.07z"/>
	<path d="M60.95,28.45c-0.53-0.39-0.5-0.59,0.21-1.22C61.09,27.62,61.02,28.01,60.95,28.45z"/>
	<path d="M104.22,41.63c0.26,0.4,0.87,0.45,0.65,1.04C104.22,42.47,104.16,42.39,104.22,41.63z"/>
	<path d="M263.8,15.18c-0.04-0.37-0.09-0.75-0.13-1.13c0.13,0,0.31,0,0.56,0c-0.11,0.41-0.21,0.79-0.3,1.16
		C263.88,15.2,263.84,15.19,263.8,15.18z"/>
	<path d="M131.13,40.33c0.22,0.32,0.44,0.62,0.71,1c-0.43-0.17-0.77-0.3-1.13-0.45C130.86,40.69,130.98,40.52,131.13,40.33z"/>
	<path d="M62.62,36.8c-0.1-0.14-0.18-0.26-0.29-0.42c0.44-0.17,0.84-0.34,1.25-0.5c0.02,0.03,0.04,0.06,0.06,0.09
		C63.32,36.23,62.99,36.5,62.62,36.8z"/>
	<path d="M122.49,41.97c0.16,0.24,0.33,0.47,0.49,0.71c0.01,0.02-0.01,0.06-0.01,0.12c-0.21,0-0.42,0-0.71,0
		c0.03-0.28,0.07-0.56,0.1-0.83C122.4,41.96,122.45,41.96,122.49,41.97z"/>
	<path d="M161.14,22.5c0.37-0.15,0.74-0.31,1.14-0.48c-0.25,0.71-0.25,0.71-1.09,0.61C161.17,22.59,161.15,22.54,161.14,22.5z"/>
	<path d="M260.32,36.36c-0.25-0.31-0.46-0.59-0.76-0.97c0.51,0.24,0.9,0.42,1.35,0.64C260.68,36.16,260.51,36.25,260.32,36.36z"/>
	<path d="M164.25,32.48c0.25-0.2,0.51-0.39,0.83-0.63c0.03,0.3,0.04,0.49,0.06,0.73c-0.25,0.03-0.53,0.07-0.8,0.1
		C164.31,32.61,164.28,32.55,164.25,32.48z"/>
	<path d="M267.36,23.7c-0.3,0.05-0.55,0.1-0.81,0.13c-0.11,0.01-0.22-0.02-0.34-0.03c0.06-0.12,0.09-0.28,0.18-0.37
		C266.57,23.27,267.17,23.42,267.36,23.7z"/>
	<path d="M112.97,18.25c0.12-0.39,0.24-0.74,0.36-1.12c0.12,0.11,0.24,0.22,0.38,0.36C113.45,17.74,113.56,18.3,112.97,18.25z"/>
	<path d="M279.99,34.53c0.4,0.08,0.8,0.16,1.21,0.25C280.76,35.23,280.76,35.23,279.99,34.53z"/>
	<path d="M178.45,13.87c-0.11,0.39-0.19,0.65-0.27,0.94c-0.28-0.1-0.54-0.2-0.77-0.28C177.7,14.34,178.03,14.14,178.45,13.87z"/>
	<path d="M93.31,36.44c-0.18,0.22-0.34,0.45-0.54,0.64c-0.09,0.08-0.26,0.06-0.4,0.09c0.04-0.15,0.03-0.36,0.13-0.44
		c0.21-0.16,0.48-0.25,0.73-0.36C93.25,36.39,93.28,36.41,93.31,36.44z"/>
	<path d="M313.08,39.46c0.32,0.16,0.64,0.31,1,0.49c-0.16,0.17-0.28,0.29-0.4,0.42c-0.24-0.28-0.46-0.54-0.69-0.8
		C313.02,39.54,313.05,39.5,313.08,39.46z"/>
	<path d="M177.82,25.9c0-0.27,0-0.47,0-0.7c0.32,0.04,0.62,0.07,1.04,0.12C178.48,25.54,178.17,25.71,177.82,25.9z"/>
	<path d="M116.24,39.29c-0.08,0-0.2,0-0.27,0c0.03-0.55,0.06-1.07,0.08-1.6c0.03-0.01,0.05-0.01,0.08-0.02
		c0.04,0.25,0.09,0.5,0.11,0.74C116.25,38.69,116.24,38.96,116.24,39.29z"/>
	<path d="M278.14,25.67c0.4,0.15,0.97-0.16,1.2,0.45C278.81,26.34,278.49,25.96,278.14,25.67z"/>
	<path d="M234.72,29.29c-0.09-0.21-0.15-0.37-0.23-0.56c0.17-0.09,0.34-0.18,0.53-0.29c0.09,0.13,0.19,0.25,0.3,0.41
		C235.12,29,234.94,29.13,234.72,29.29z"/>
	<path d="M270.33,19.98c-0.16-0.34-0.3-0.64-0.44-0.94C270.58,18.95,270.67,19.12,270.33,19.98z"/>
	<path d="M147.97,28.46c-0.24,0.5-0.37,0.55-0.85,0.34C147.26,28.28,147.41,28.22,147.97,28.46z"/>
	<path d="M91.46,42.19c-0.35,0.19-0.61,0.33-0.91,0.49c-0.07-0.26-0.12-0.47-0.18-0.71C90.69,42.04,91,42.1,91.46,42.19z"/>
	<path d="M177.26,27.37c0.02,0.39,0.04,0.77,0.06,1.2c-0.16-0.24-0.27-0.44-0.41-0.62c-0.2-0.28-0.32-0.5,0.19-0.52
		C177.17,27.43,177.23,27.38,177.26,27.37z"/>
	<path d="M298.51,42.23c-0.41,0.1-0.78,0.19-1.15,0.27c-0.01-0.04-0.02-0.09-0.02-0.13C297.83,41.93,297.99,41.76,298.51,42.23z"/>
	<path d="M60.21,29.62c-0.18,0.13-0.38,0.28-0.6,0.45c-0.09-0.38-0.16-0.71-0.23-1.02C59.64,29.23,59.9,29.41,60.21,29.62z"/>
	<path d="M73.57,36.61c-0.39,0.43-0.96,0.44-1.47,0.59C72.62,37.07,72.94,36.49,73.57,36.61z"/>
	<path d="M218.9,14.37c0.1,0.2,0.21,0.4,0.34,0.65c-0.27,0.14-0.53,0.28-0.86,0.45C218.57,15.07,218.74,14.73,218.9,14.37z"/>
	<path d="M80.47,40.11c-0.19,0-0.36,0-0.58,0c0.04-0.33,0.08-0.64,0.11-0.95c0.04-0.02,0.09-0.03,0.13-0.05
		C80.25,39.44,80.36,39.77,80.47,40.11z"/>
	<path d="M29,20.45c0.22-0.17,0.45-0.33,0.74-0.55c-0.06,0.53-0.26,0.85-0.69,1.02C29.04,20.77,29.02,20.63,29,20.45z"/>
	<path d="M122.67,38.99c-0.26-0.34-0.52-0.68-0.78-1.02c0.04-0.03,0.08-0.06,0.11-0.09c0.36,0.27,0.82,0.45,0.79,1.01
		C122.76,38.93,122.72,38.96,122.67,38.99z"/>
	<path d="M33.55,17.33c0.17,0.18,0.32,0.34,0.46,0.5c-0.15,0.1-0.31,0.21-0.47,0.32C33.18,17.84,33.17,17.69,33.55,17.33z"/>
	<path d="M279.66,40.16c0-0.4,0-0.81,0-1.23C280.01,39.31,280.05,39.69,279.66,40.16z"/>
	<path d="M151.24,13.97c0.31,0.24,0.59,0.46,0.89,0.69C151.5,14.83,151.14,14.56,151.24,13.97z"/>
	<path d="M51.13,20.47c-0.22,0.06-0.43,0.11-0.64,0.17c-0.09-0.37-0.06-0.68,0.37-0.79C50.94,20.05,51.04,20.26,51.13,20.47z"/>
	<path d="M213.24,16.55c0.16,0.07,0.32,0.14,0.48,0.21c0,0.04,0.01,0.09,0.01,0.13c-0.34,0.13-0.67,0.27-1.01,0.4
		c-0.01-0.02-0.03-0.05-0.04-0.07C212.86,17.01,213.04,16.79,213.24,16.55z"/>
	<path d="M62.67,21.89c0.32,0.18,0.56,0.31,0.85,0.47c-0.21,0.15-0.39,0.29-0.64,0.47C62.81,22.5,62.75,22.24,62.67,21.89z"/>
	<path d="M330.52,39.67c0.1,0.3,0.2,0.6,0.31,0.93c-0.19,0.05-0.35,0.1-0.54,0.15c0.03-0.36,0.06-0.7,0.09-1.04
		C330.43,39.7,330.47,39.69,330.52,39.67z"/>
	<path d="M238.26,16.78c0,0.31,0,0.55,0,0.82c-0.23,0-0.44,0-0.76,0C237.77,17.31,237.99,17.07,238.26,16.78z"/>
	<path d="M122.77,28.03c-0.84,0.08-0.88,0.05-0.84-0.75C122.22,27.54,122.48,27.77,122.77,28.03z"/>
	<path d="M63.55,19.01c-0.2-0.19-0.4-0.38-0.6-0.57c0.04-0.06,0.08-0.13,0.12-0.19c0.21,0.02,0.47-0.02,0.6,0.09
		c0.1,0.08,0.02,0.36,0.02,0.56C63.65,18.94,63.6,18.98,63.55,19.01z"/>
	<path d="M66.86,26.48c0.23,0.49-0.21,0.71-0.25,1.05C66.17,27.34,66.21,27.27,66.86,26.48z"/>
	<path d="M342.09,31.38c-0.08-0.4-0.15-0.76-0.22-1.12c0.05-0.01,0.09-0.03,0.14-0.04c0.16,0.38,0.32,0.75,0.49,1.16
		C342.33,31.38,342.22,31.38,342.09,31.38z"/>
	<path d="M108.16,17.94c-0.19,0.13-0.39,0.27-0.58,0.4c-0.15-0.12-0.27-0.22-0.38-0.31c0.21-0.49,0.59-0.19,0.9-0.2
		C108.12,17.87,108.14,17.9,108.16,17.94z"/>
	<path d="M278.4,16.24c0.22-0.21,0.45-0.42,0.72-0.67c0.14,0.19,0.23,0.32,0.32,0.44c-0.35,0.12-0.65,0.22-0.95,0.33
		C278.46,16.3,278.43,16.27,278.4,16.24z"/>
	<path d="M315.38,15.66c0.1,0.32,0.17,0.54,0.24,0.76c-0.04,0.03-0.09,0.07-0.13,0.1c-0.2-0.16-0.4-0.31-0.61-0.47
		C315.02,15.93,315.16,15.83,315.38,15.66z"/>
	<path d="M77.3,40.12c0.4,0.06,0.75,0.11,1.16,0.17C77.8,40.71,77.45,40.66,77.3,40.12z"/>
	<path d="M335.04,36.45c-0.33,0.11-0.54,0.18-0.78,0.26c0-0.24,0-0.46,0-0.79C334.53,36.1,334.74,36.24,335.04,36.45z"/>
	<path d="M119.67,37.67c-0.23-0.14-0.47-0.28-0.73-0.44c0.18-0.12,0.33-0.22,0.55-0.37c0.11,0.26,0.22,0.5,0.32,0.73
		C119.77,37.62,119.72,37.64,119.67,37.67z"/>
	<path d="M111.04,24.06c0.29-0.26,0.53-0.19,0.91,0.26C111.41,24.46,111.41,24.46,111.04,24.06z"/>
	<path d="M220.57,23.05c0.74-0.04,0.92,0.12,0.86,0.77C221.14,23.57,220.87,23.33,220.57,23.05z"/>
	<path d="M24.61,39.51c-0.59,0.03-1.17,0.06-1.79,0.08c0.19-0.3,0.37-0.3,0.67-0.22c0.34,0.09,0.72,0.02,1.08,0.02
		C24.58,39.43,24.59,39.47,24.61,39.51z"/>
	<path d="M180.94,25.64c0.38,0.12,0.65,0.21,0.99,0.33c-0.29,0.12-0.54,0.22-0.84,0.35C181.03,26.07,180.99,25.87,180.94,25.64z"/>
	<path d="M312.18,40.42c0.18,0.15,0.35,0.3,0.56,0.47c-0.22,0.15-0.38,0.26-0.62,0.43c-0.02-0.33-0.03-0.58-0.05-0.84
		C312.11,40.46,312.14,40.44,312.18,40.42z"/>
	<path d="M292.16,41.95c0.23-0.08,0.37-0.14,0.62-0.23c0.02,0.31,0.03,0.57,0.05,0.83c-0.03,0.02-0.06,0.04-0.09,0.06
		C292.56,42.4,292.37,42.2,292.16,41.95z"/>
	<path d="M337.13,35.56c-0.05,0.22-0.09,0.39-0.14,0.59c-0.28-0.25-0.52-0.45-0.76-0.66c0-0.03,0.01-0.05,0.01-0.08
		C336.53,35.46,336.81,35.51,337.13,35.56z"/>
	<path d="M282.02,17.74c-0.3,0.11-0.47,0.17-0.7,0.26c-0.04-0.24-0.09-0.46-0.13-0.69c0.03-0.02,0.06-0.04,0.1-0.06
		C281.5,17.39,281.72,17.54,282.02,17.74z"/>
	<path d="M80.45,44.6c-0.49,0.14-0.56-0.27-0.76-0.54C80.14,43.91,80.23,43.98,80.45,44.6z"/>
	<path d="M118.55,43.06c-0.47-0.08-0.66-0.43-0.85-0.87C118.23,42.27,118.33,42.73,118.55,43.06z"/>
	<path d="M286.58,14.59c0.02-0.22,0.04-0.41,0.06-0.67c0.5,0.15,0.31,0.59,0.51,0.94C286.9,14.75,286.75,14.67,286.58,14.59z"/>
	<path d="M307.16,25.28c-0.21,0.13-0.42,0.28-0.64,0.36c-0.09,0.04-0.24-0.06-0.36-0.1c0.06-0.09,0.11-0.23,0.18-0.25
		c0.26-0.07,0.53-0.09,0.8-0.13C307.15,25.21,307.15,25.25,307.16,25.28z"/>
	<path d="M160.51,34.98c-0.15,0.53-0.51,0.74-1.17,0.69C159.76,35.42,160.09,35.23,160.51,34.98z"/>
	<path d="M120.51,27.38c0.15,0,0.26,0,0.39,0c0,0.24,0,0.45,0,0.68c-0.17-0.04-0.33-0.08-0.51-0.12
		C120.43,27.75,120.47,27.57,120.51,27.38z"/>
	<path d="M274.77,21.12c0.18,0.19,0.34,0.36,0.5,0.52c-0.22,0.06-0.44,0.12-0.79,0.21C274.61,21.53,274.68,21.35,274.77,21.12z"/>
	<path d="M35.46,22.16c0.29-0.35,0.67-0.46,1.25-0.33c-0.47,0.19-0.83,0.33-1.19,0.47C35.5,22.25,35.48,22.21,35.46,22.16z"/>
	<path d="M240.38,23.26c-0.13-0.15-0.34-0.28-0.35-0.44c-0.01-0.11,0.24-0.25,0.47-0.47c0,0.38,0,0.61,0,0.83
		C240.45,23.21,240.42,23.23,240.38,23.26z"/>
	<path d="M90.83,23.81c0.28-0.12,0.56-0.25,0.89-0.4c0.02,0.21,0.03,0.33,0.05,0.48c-0.32,0-0.61,0-0.9,0
		C90.85,23.87,90.84,23.84,90.83,23.81z"/>
	<path d="M164.04,29.74c-0.11,0.22-0.17,0.35-0.26,0.52c-0.12-0.11-0.23-0.21-0.33-0.3c-0.1-0.09-0.2-0.17-0.31-0.26
		c0.02-0.04,0.03-0.08,0.05-0.12C163.46,29.62,163.72,29.68,164.04,29.74z"/>
	<path d="M52.34,14.91c-0.41,0-0.78,0-1.15,0C51.73,14.5,52.14,14.48,52.34,14.91z"/>
	<path d="M240.05,30.99c-0.54-0.16-0.68-0.65-0.97-1.02c0.05-0.04,0.09-0.07,0.14-0.11C239.5,30.23,239.78,30.61,240.05,30.99z"/>
	<path d="M270.55,41.99c0.16,0.29,0.32,0.58,0.47,0.87c-0.02,0.03-0.04,0.06-0.06,0.09c-0.13-0.07-0.28-0.12-0.37-0.22
		C270.4,42.51,270.31,42.27,270.55,41.99z"/>
	<path d="M13.18,15.92c0.26,0.19,0.41,0.29,0.62,0.45c-0.24,0.14-0.42,0.25-0.71,0.42C13.13,16.48,13.15,16.26,13.18,15.92z"/>
	<path d="M296.73,41.46c-0.05-0.15-0.09-0.27-0.17-0.52c0.3-0.01,0.56-0.03,0.82-0.04c0.01,0.05,0.02,0.1,0.03,0.15
		C297.19,41.18,296.96,41.32,296.73,41.46z"/>
	<path d="M66.93,32.46c-0.17,0.13-0.32,0.25-0.47,0.37c-0.08-0.24-0.17-0.47-0.25-0.71c0.03-0.02,0.06-0.04,0.1-0.06
		C66.49,32.18,66.68,32.3,66.93,32.46z"/>
	<path d="M111.44,19.7c-0.19-0.17-0.33-0.3-0.55-0.5c0.34-0.02,0.59-0.03,0.96-0.05C111.68,19.38,111.56,19.55,111.44,19.7z"/>
	<path d="M216.64,20.11c-0.27-0.02-0.57-0.05-0.94-0.08c0.14-0.18,0.25-0.34,0.4-0.54C216.31,19.72,216.49,19.93,216.64,20.11z"/>
	<path d="M265.04,25.62c-0.65,0.08-0.35-0.6-0.59-0.86c0.24,0.24,0.48,0.48,0.71,0.72C265.12,25.53,265.08,25.58,265.04,25.62z"/>
	<path d="M63.68,23.65c-0.03,0.5-0.2,0.81-0.84,0.68C63.16,24.08,63.42,23.87,63.68,23.65z"/>
	<path d="M147.83,31.86c-0.3,0.23-0.58,0.16-0.8-0.19C147.36,31.41,147.62,31.47,147.83,31.86z"/>
	<path d="M89.6,31.28c0.08-0.42,0.14-0.77,0.21-1.13c0.08,0.37,0.16,0.74,0.24,1.13C89.94,31.28,89.79,31.28,89.6,31.28z"/>
	<path d="M179.15,38.16c0.13-0.43,0.41-0.46,1-0.05C179.83,38.12,179.52,38.14,179.15,38.16z"/>
	<path d="M187.14,33.76c-0.09,0.24-0.15,0.41-0.22,0.59c-0.17-0.17-0.33-0.33-0.58-0.59C186.67,33.76,186.84,33.76,187.14,33.76z"/>
	<path d="M163.01,42.61c-0.92-0.29-1.03-0.42-0.87-0.71C162.41,42.13,162.71,42.37,163.01,42.61z"/>
	<path d="M124.56,18.57c0.2,0.06,0.38,0.11,0.56,0.16c0.01,0.04,0.02,0.09,0.03,0.13c-0.27,0.09-0.53,0.18-0.91,0.31
		C124.39,18.89,124.47,18.74,124.56,18.57z"/>
	<path d="M235.46,42.33c-0.09-0.15-0.15-0.26-0.24-0.41c0.33-0.09,0.64-0.17,0.94-0.24c0.01,0.02,0.03,0.04,0.04,0.06
		C235.96,41.92,235.73,42.11,235.46,42.33z"/>
	<path d="M327.79,24.84c0.38,0.26,0.53,0.68,0.37,1.24C328.04,25.68,327.92,25.27,327.79,24.84z"/>
	<path d="M76.8,14.25c0.23,0,0.47,0,0.76,0c-0.26,0.23-0.48,0.41-0.72,0.62C76.83,14.66,76.82,14.46,76.8,14.25z"/>
	<path d="M28.99,41.62c-0.12,0.04-0.23,0.08-0.38,0.14c-0.16-0.19-0.32-0.38-0.49-0.58C28.66,40.91,28.65,41.58,28.99,41.62z"/>
	<path d="M143.24,37.89c0.06-0.44,0.11-0.79,0.16-1.18C143.73,37.09,143.7,37.32,143.24,37.89z"/>
	<path d="M85.31,15.23c-0.4,0.12-0.73,0.22-1.08,0.32C84.42,15.05,84.61,14.99,85.31,15.23z"/>
	<path d="M216.41,35.36c-0.14,0.22-0.29,0.45-0.43,0.68c-0.13-0.07-0.28-0.14-0.47-0.24c0.3-0.18,0.57-0.33,0.84-0.49
		C216.37,35.32,216.39,35.34,216.41,35.36z"/>
	<path d="M237.63,35.18c0.2,0.24,0.32,0.4,0.45,0.55c-0.02,0.04-0.04,0.07-0.05,0.11c-0.23-0.05-0.46-0.1-0.69-0.14
		C237.42,35.55,237.5,35.4,237.63,35.18z"/>
	<path d="M96.12,35.56c0.78-0.02,1.01,0.16,0.84,0.57C96.7,35.95,96.44,35.77,96.12,35.56z"/>
	<path d="M36.61,40.26c-0.08-0.32,0-0.59,0.36-0.72c0.06-0.02,0.14-0.02,0.21-0.03c0,0.08,0.03,0.19-0.01,0.23
		C36.99,39.93,36.79,40.09,36.61,40.26z"/>
	<path d="M185.7,29.08c-0.31,0.43-0.61,0.13-0.89,0.08c-0.02,0-0.05-0.16-0.03-0.17c0.06-0.04,0.15-0.07,0.22-0.06
		C185.23,28.97,185.45,29.03,185.7,29.08z"/>
	<path d="M169.43,42.47c-0.24,0.07-0.49,0.13-0.85,0.23c0.08-0.2,0.1-0.37,0.15-0.39c0.22-0.05,0.44-0.04,0.67-0.05
		C169.41,42.33,169.42,42.4,169.43,42.47z"/>
	<path d="M331.02,20.18c-0.97-0.24-1.03-0.28-1.08-0.71C330.33,19.72,330.67,19.95,331.02,20.18z"/>
	<path d="M116.71,30.41c-0.24-0.06-0.42-0.11-0.64-0.17c0.09-0.23,0.17-0.42,0.28-0.7C116.49,29.87,116.58,30.11,116.71,30.41z"/>
	<path d="M271.34,17.67c0.33,0.27,0.59,0.49,0.85,0.71C271.89,18.67,271.87,18.66,271.34,17.67z"/>
	<path d="M257.88,39.13c0.36-0.16,0.64-0.28,0.99-0.43c0.02,0.11,0.08,0.25,0.04,0.35c-0.03,0.06-0.21,0.07-0.32,0.08
		C258.36,39.14,258.14,39.13,257.88,39.13z"/>
	<path d="M145.47,40.95c-0.48,0.29-0.64,0.3-0.97,0.01c0.35-0.07,0.65-0.12,0.95-0.18C145.46,40.84,145.46,40.9,145.47,40.95z"/>
	<path d="M186.15,38.11c0.36-0.07,0.6,0.12,0.82,0.38c-0.02,0.05-0.05,0.1-0.07,0.15c-0.27-0.13-0.54-0.25-0.81-0.38
		C186.12,38.21,186.13,38.16,186.15,38.11z"/>
	<path d="M259.26,43.07c0.25-0.28,0.45-0.5,0.66-0.73C259.97,43,259.88,43.11,259.26,43.07z"/>
	<path d="M338.73,30.21c-0.09,0.4-0.16,0.73-0.24,1.09C338.25,30.82,338.32,30.41,338.73,30.21z"/>
	<path d="M39.53,19.48c-0.24,0.24-0.47,0.49-0.71,0.73c-0.18-0.24,0.1-0.61,0.62-0.82C39.47,19.42,39.5,19.45,39.53,19.48z"/>
	<path d="M81.53,18.25c-0.42,0.22-0.99,0.01-0.98-0.34C80.86,18.02,81.17,18.12,81.53,18.25z"/>
	<path d="M334.94,21.06c-0.1,0.23-0.21,0.47-0.31,0.7c-0.05-0.01-0.11-0.02-0.16-0.03c0.03-0.21,0.04-0.43,0.11-0.62
		c0.03-0.08,0.2-0.12,0.31-0.17C334.9,20.98,334.92,21.02,334.94,21.06z"/>
	<path d="M167.16,23.36c0.14-0.23,0.25-0.41,0.4-0.65c0.11,0.24,0.19,0.43,0.29,0.65C167.6,23.36,167.41,23.36,167.16,23.36z"/>
	<path d="M318.23,39.2c0-0.35,0-0.7,0-1.05C318.53,38.24,318.55,38.42,318.23,39.2z"/>
	<path d="M88.67,30.82c-0.14-0.05-0.26-0.09-0.49-0.16c0.19-0.22,0.33-0.39,0.48-0.56c0.04,0.02,0.08,0.05,0.12,0.07
		C88.74,30.37,88.71,30.58,88.67,30.82z"/>
	<path d="M334.74,16.08c-0.35,0-0.58,0-0.8,0c-0.01-0.03-0.03-0.06-0.04-0.09c0.21-0.11,0.41-0.22,0.62-0.3
		C334.54,15.68,334.64,15.9,334.74,16.08z"/>
	<path d="M326.85,43.28c-0.27,0.18-0.44,0.3-0.65,0.44c-0.07-0.17-0.14-0.31-0.24-0.55C326.29,43.21,326.52,43.24,326.85,43.28z"/>
	<path d="M31.66,39.12c0.2-0.21,0.1-0.68,0.61-0.57C32.21,38.9,32.13,39.19,31.66,39.12z"/>
	<path d="M66.77,18.51c0.15-0.23,0.28-0.44,0.41-0.65c0.04,0.03,0.08,0.06,0.12,0.08c-0.09,0.25-0.18,0.49-0.28,0.77
		C66.88,18.6,66.78,18.51,66.77,18.51z"/>
	<path d="M234.62,35.33c0.58-0.24,1.13-0.17,1.26,0.08C235.46,35.38,235.04,35.35,234.62,35.33z"/>
	<path d="M243.31,27.13c0.23-0.07,0.45-0.16,0.68-0.21c0.04-0.01,0.11,0.17,0.2,0.31c-0.33,0.02-0.58,0.03-0.83,0.04
		C243.34,27.22,243.33,27.18,243.31,27.13z"/>
	<path d="M78.36,39.09c0.21-0.09,0.43-0.18,0.72-0.3c-0.07,0.28-0.1,0.43-0.14,0.59c-0.18-0.06-0.36-0.12-0.54-0.18
		C78.39,39.16,78.38,39.12,78.36,39.09z"/>
	<path d="M266.16,30.11c0.58,0.35,0.58,0.35,0.53,1.11C266.5,30.83,266.35,30.51,266.16,30.11z"/>
	<path d="M33.77,21.64c-0.3,0.06-0.56,0.11-0.85,0.16C33.12,21.33,33.48,21.26,33.77,21.64z"/>
	<path d="M184.41,27.71c0.52-0.3,1.05-0.28,1.19,0C185.23,27.71,184.86,27.71,184.41,27.71z"/>
	<path d="M37.01,23.45c-0.2-0.1-0.4-0.19-0.64-0.31c0.24-0.12,0.43-0.21,0.64-0.31C37.01,23.02,37.01,23.22,37.01,23.45z"/>
	<path d="M41.92,40.76c0-0.36,0-0.61,0-0.89c0.15,0.05,0.28,0.09,0.46,0.14C42.23,40.25,42.1,40.46,41.92,40.76z"/>
	<path d="M324.52,31.88c-0.03,0.27-0.07,0.55-0.11,0.86c-0.14-0.07-0.24-0.12-0.39-0.2c0.15-0.24,0.28-0.45,0.41-0.67
		C324.46,31.87,324.49,31.87,324.52,31.88z"/>
	<path d="M59.53,31.48c0.82-0.46,0.82-0.46,0.89,0C60.13,31.48,59.85,31.48,59.53,31.48z"/>
	<path d="M29.08,22.25c0.19,0.1,0.38,0.19,0.61,0.31c-0.11,0.13-0.21,0.24-0.33,0.38c-0.14-0.22-0.26-0.41-0.38-0.6
		C29.01,22.31,29.05,22.28,29.08,22.25z"/>
	<path d="M28.84,18.47c-0.36-0.11-0.71-0.22-1.07-0.32c0.02-0.06,0.04-0.13,0.06-0.19c0.34,0.12,0.69,0.25,1.03,0.37
		C28.86,18.37,28.85,18.42,28.84,18.47z"/>
	<path d="M239.57,34.25c-0.35-0.46-0.7-0.92-1.05-1.38c0.03-0.02,0.05-0.04,0.08-0.06c0.36,0.45,0.71,0.91,1.07,1.36
		C239.63,34.2,239.6,34.23,239.57,34.25z"/>
	<path d="M337.97,38.31c0.3,0.12,0.59,0.24,0.89,0.35c-0.02,0.05-0.04,0.1-0.05,0.16c-0.3-0.1-0.61-0.19-0.91-0.29
		C337.92,38.45,337.95,38.38,337.97,38.31z"/>
	<path d="M12.69,23.48c0.52,0.16,0.61,0.41,0.32,0.72C12.9,23.95,12.79,23.72,12.69,23.48z"/>
	<path d="M32.05,19.82c0.09-0.31,0.17-0.62,0.26-0.92C32.23,19.21,32.72,19.62,32.05,19.82z"/>
	<path d="M67.05,41.72c0.12-0.29,0.23-0.58,0.35-0.87c0.07,0.03,0.14,0.06,0.21,0.09c-0.14,0.28-0.28,0.56-0.42,0.84
		C67.15,41.77,67.1,41.75,67.05,41.72z"/>
	<path d="M237.01,30.65c0.1,0.08,0.21,0.16,0.33,0.26c-0.1,0.13-0.2,0.28-0.4,0.55c-0.03-0.35-0.05-0.58-0.07-0.81
		C236.91,30.65,236.96,30.65,237.01,30.65z"/>
	<path d="M215.12,34.7c-0.27,0.24-0.54,0.56-0.95,0.14C214.52,34.79,214.82,34.75,215.12,34.7z"/>
	<path d="M273.95,30.37c0.24-0.06,0.48-0.11,0.75-0.18c0,0.19,0,0.3,0,0.43c-0.24-0.06-0.49-0.11-0.73-0.17
		C273.97,30.43,273.96,30.4,273.95,30.37z"/>
	<path d="M116.41,40.19c0.11,0.26,0.22,0.52,0.35,0.86C116.37,40.85,116.15,40.65,116.41,40.19z"/>
	<path d="M59.39,24.62c0.29-0.03,0.49-0.05,0.83-0.08c-0.27,0.2-0.45,0.32-0.62,0.45C59.58,24.96,59.52,24.84,59.39,24.62z"/>
	<path d="M88.92,27.32c0.12-0.33,0.19-0.54,0.27-0.79c0.12,0.18,0.22,0.32,0.35,0.5C89.36,27.12,89.2,27.19,88.92,27.32z"/>
	<path d="M211.59,34.23c0.06-0.17,0.11-0.3,0.17-0.46c0.14,0.07,0.26,0.13,0.38,0.19C212.04,34.23,211.97,34.55,211.59,34.23z"/>
	<path d="M28.6,34.44c-0.08,0.18-0.15,0.36-0.24,0.57c-0.13-0.08-0.25-0.15-0.4-0.25c0.18-0.15,0.35-0.29,0.51-0.43
		C28.51,34.36,28.56,34.4,28.6,34.44z"/>
	<path d="M290.28,33.07c-0.17,0.2-0.33,0.39-0.5,0.59c-0.06-0.05-0.12-0.1-0.17-0.14c0.16-0.2,0.33-0.4,0.49-0.6
		C290.16,32.97,290.22,33.02,290.28,33.07z"/>
	<path d="M80.93,16.74c0.31,0.12,0.63,0.25,0.94,0.37c-0.02,0.05-0.04,0.11-0.06,0.16c-0.31-0.12-0.63-0.24-0.94-0.36
		C80.88,16.85,80.91,16.8,80.93,16.74z"/>
	<path d="M267.84,29.8c0.18,0,0.32,0,0.57,0c-0.22,0.23-0.37,0.4-0.57,0.61C267.84,30.15,267.84,29.97,267.84,29.8z"/>
	<path d="M277.83,17.8c-0.26-0.1-0.42-0.16-0.57-0.21c0.05-0.18,0.09-0.33,0.17-0.63C277.58,17.29,277.69,17.5,277.83,17.8z"/>
	<path d="M278.53,27.25c-0.18,0.21-0.25,0.3-0.34,0.4c-0.16-0.19-0.27-0.33-0.39-0.47c0.01-0.04,0.02-0.07,0.04-0.11
		C278.03,27.13,278.23,27.18,278.53,27.25z"/>
	<path d="M232.47,26.11c0.2,0,0.41,0,0.64,0c0,0.12,0,0.23,0,0.44c-0.27-0.13-0.47-0.23-0.68-0.33
		C232.45,26.18,232.46,26.15,232.47,26.11z"/>
	<path d="M308.63,23.51c0.48-0.06,0.48-0.05,0.46,0.6C308.9,23.87,308.75,23.67,308.63,23.51z"/>
	<path d="M315.77,23.43c-0.57,0.1-0.64-0.21-0.64-0.59C315.32,23.01,315.51,23.19,315.77,23.43z"/>
	<path d="M242.04,17.86c-0.15-0.09-0.33-0.16-0.32-0.19c0.04-0.19,0.13-0.37,0.2-0.55c0.04,0.01,0.08,0.03,0.12,0.04
		C242.04,17.35,242.04,17.54,242.04,17.86z"/>
	<path d="M214.98,16.23c-0.37,0.13-0.46-0.2-0.55-0.54c0.2,0.13,0.41,0.26,0.61,0.39C215.03,16.13,215,16.18,214.98,16.23z"/>
	<path d="M236.49,19.48c0.19-0.1,0.38-0.19,0.7-0.35c-0.11,0.23-0.13,0.41-0.23,0.46c-0.12,0.07-0.3,0.05-0.46,0.06
		C236.51,19.59,236.5,19.54,236.49,19.48z"/>
	<path d="M88.18,38.48c-0.17,0-0.29,0-0.49,0c0.09-0.23,0.16-0.44,0.27-0.75C88.05,38.03,88.11,38.24,88.18,38.48z"/>
	<path d="M281.74,14.94c0.18,0.17,0.37,0.35,0.57,0.54c-0.35,0.13-0.35,0.13-0.67-0.41C281.67,15.03,281.7,14.99,281.74,14.94z"/>
	<path d="M236.17,36.87c-0.03,0.18-0.06,0.31-0.1,0.51c-0.18-0.08-0.35-0.14-0.51-0.21c0-0.04,0.01-0.09,0.01-0.13
		C235.76,36.98,235.95,36.93,236.17,36.87z"/>
	<path d="M313.08,32.57c0.1-0.19,0.2-0.38,0.3-0.57c0.03,0,0.05,0,0.08,0.01c0.01,0.18,0.06,0.36,0.02,0.52
		c-0.02,0.08-0.23,0.1-0.35,0.15C313.11,32.64,313.09,32.61,313.08,32.57z"/>
	<path d="M210.72,16.86c-0.07,0.45-0.14,0.91-0.22,1.36C210.55,17.76,210.31,17.25,210.72,16.86z"/>
	<path d="M241.75,28.21c0.16-0.22,0.29-0.41,0.46-0.66c0,0.27,0,0.45,0,0.66C242.09,28.21,241.96,28.21,241.75,28.21z"/>
	<path d="M274.98,22.72c0,0.25,0,0.41,0,0.69c-0.13-0.17-0.19-0.28-0.28-0.34c-0.07-0.06-0.18-0.07-0.29-0.19
		C274.59,22.82,274.76,22.78,274.98,22.72z"/>
	<path d="M18.61,22.1c-0.37-0.1-0.75-0.19-1.1-0.28c0.17-0.15,0.17-0.15,1.13,0.17C18.63,22.03,18.62,22.06,18.61,22.1z"/>
</g>
</svg>
