<svg width="331" height="33" viewBox="0 0 331 33" fill="none" xmlns="http://www.w3.org/2000/svg"><g clip-path="url(#a)"><path d="M41.18 1.84l.8 14.05-9.1-8.9h-5.55v17.12l8.72 6.79H6.33l8.72-6.79V6.99H9.5l-9.1 8.9.8-14.05h39.98z" fill="#D9B33B" stroke="#000" stroke-width=".6"/><path d="M291.69 11.13c0-3.35 1.33-5.98 3.99-7.88 2.66-1.9 6.33-2.85 11.01-2.85 4.5 0 8.54.76 12.11 2.28l.99.43L326.46.6v12.28c-6.23-4.97-12.87-7.45-19.91-7.45-4.25 0-6.37.77-6.37 2.32 0 .73.52 1.27 1.55 1.64 1.03.37 2.98.7 5.83.98l5.05.49c6.33.63 10.58 1.56 12.72 2.81 3.59 2.1 5.39 4.91 5.39 8.43 0 3.15-1.42 5.66-4.27 7.53-2.85 1.87-6.68 2.8-11.48 2.8-5.15 0-10.43-1.04-15.84-3.13l-6.18 2.81V17.54c2.12 2.98 5.04 5.31 8.76 6.98 3.72 1.67 7.82 2.51 12.31 2.51 4.72 0 7.08-.77 7.08-2.32 0-.72-.32-1.21-.95-1.46-.63-.25-2.15-.49-4.55-.71l-5.19-.49c-6.03-.55-10.3-1.44-12.79-2.66-3.95-1.94-5.93-4.7-5.93-8.26" fill="#D9B33B"/><path d="M291.69 11.13c0-3.35 1.33-5.98 3.99-7.88 2.66-1.9 6.33-2.85 11.01-2.85 4.5 0 8.54.76 12.11 2.28l.99.43L326.46.6v12.28c-6.23-4.97-12.87-7.45-19.91-7.45-4.25 0-6.37.77-6.37 2.32 0 .73.52 1.27 1.55 1.64 1.03.37 2.98.7 5.83.98l5.05.49c6.33.63 10.58 1.56 12.72 2.81 3.59 2.1 5.39 4.91 5.39 8.43 0 3.15-1.42 5.66-4.27 7.53-2.85 1.87-6.68 2.8-11.48 2.8-5.15 0-10.43-1.04-15.84-3.13l-6.18 2.81V17.54c2.12 2.98 5.04 5.31 8.76 6.98 3.72 1.67 7.82 2.51 12.31 2.51 4.72 0 7.08-.77 7.08-2.32 0-.72-.32-1.21-.95-1.46-.63-.25-2.15-.49-4.55-.71l-5.19-.49c-6.03-.55-10.3-1.44-12.79-2.66-3.95-1.94-5.93-4.7-5.93-8.26" stroke="#000" stroke-width=".6"/><path d="M277.64 1.91l-5.69 5.3 9.94 16.97 8.98 6.79h-29.94l8.25-5.96-1.08-2h-13.68l-1.06 2 7.17 5.96h-22.19l7-6.79 9.78-16.97-5.57-5.3h28.09zm-16.7 8.43l-4.2 7.88h8.67l-4.47-7.88zm-50.69-8.49l14.79 15.69V8.62l-8.74-6.77h24.35l-8.72 6.77v22.29h-12.29l-14.97-16.52v9.73l8.74 6.79h-24.35l8.72-6.79V8.62l-8.72-6.77h21.19zm-25.41.06v12.56l-8.91-7.77h-16.76v6.34h9.21l6.54-3.41v13.11l-6.54-3.96h-9.21v6.43h16.76l9.61-8.35v14.09h-47.36l8.72-6.73V8.66l-8.72-6.75h46.66zm-48.56 13.47v15.56H89.97l8.7-6.73V8.69l-8.7-6.81h29.69l-8.7 6.81v16.5h14.66l10.66-9.81zM67.59 1c6.01 0 11.23 1.63 15.66 4.9 4.43 3.26 6.64 7.1 6.64 11.52 0 4.1-2.23 7.64-6.69 10.61-4.46 2.97-9.76 4.46-15.9 4.46-6.02 0-11.31-1.51-15.87-4.52-4.56-3.02-6.84-6.51-6.84-10.49 0-4.5 2.26-8.37 6.79-11.61C55.91 2.62 61.32 1 67.59 1zm-.34 5.02c-2.47 0-4.49.98-6.05 2.95-1.56 1.97-2.34 4.5-2.34 7.61 0 3.09.76 5.57 2.3 7.44 1.53 1.87 3.56 2.8 6.09 2.8 2.54 0 4.57-.93 6.1-2.79 1.53-1.86 2.29-4.34 2.29-7.45 0-3.09-.78-5.63-2.35-7.6-1.57-1.97-3.59-2.96-6.04-2.96z" fill="#D9B33B" stroke="#000" stroke-width=".6"/><path d="M228.3 6.85c.18.05.33.06.44.14.29.2.57.42.84.65.41.34.38.64-.06.96-.32.24-.61.52-1.03.88-.53 0-1.17.14-1.47.91-.15-.06-.31-.1-.45-.18-.12-.07-.28-.2-.28-.31 0-.16.08-.38.2-.46.82-.52 1.32-1.28 1.73-2.12.06-.11.05-.25.08-.47zm97.17 5.3c-.72-.5-1.45-1.01-2.14-1.5.25-.55.47-1.06.66-1.48.44.16.93.33 1.4.52.1.04.18.17.23.27.1.21.19.43.26.65.03.08.03.19 0 .27-.12.42-.26.83-.41 1.27zM99.23 3.75c.27-.04.68-.11 1.18-.19-.09.67-.12 1.33-.27 1.96-.12.48-.64.62-1.2.41-.19-.07-.38-.18-.58-.19-.29-.03-.56-.17-.53-.42.03-.24.25-.49.44-.69.25-.27.56-.52.96-.88zm224.52 1.13c.44-.05.91-.1 1.37-.15.37-.04.58.19.69.5.13.36.21.73-.24.95-.05.03-.12.04-.15.09-.65.78-1.35.39-2.07.11.13-.48.25-.94.4-1.5zM60.25 31.87c-.95-.29-1.87-.57-2.79-.86-.08-.03-.22-.06-.23-.1-.06-.41-.13-.82-.13-1.23 0-.18.15-.37.26-.62.6.48 1.13.91 1.67 1.34.1.08.21.17.33.23.49.23.9.53.89 1.24zm20.6-10.78c.31-.39.6-.63 1.09-.44.25.1.55.06.83.11.23.04.4.14.52.39.21.43.48.83.76 1.29-.52 0-1 .04-1.29.52-.01.02-.37-.13-.36-.16.14-.74-.55-.87-.9-1.23-.18-.19-.42-.32-.65-.48zM24.7 23.36c.74-.17 1.35-.3 2.02-.45.2.61.47 1.2.36 1.89-.03.19.09.41.12.62.02.17 0 .35 0 .52-.06.02-.13.05-.19.07-.76-.86-1.5-1.71-2.31-2.65zm231.68 4.18c.32.23.64.46.96.68.5.34.55.63.32 1.16-.13.3-.24.65-.22.97.02.47-.07.75-.6.7.18-1.19 0-1.34-.59-1.53-.1-.27-.14-.57-.3-.75-.22-.24-.17-.37.01-.58.16-.19.28-.43.42-.65zm-231.71-12c.09-.13.17-.23.2-.28.56.4 1.12.79 1.71 1.21-.35.51-.4 1.15-.1 1.87-.58-.15-1 .11-1.34.55-.04-.02-.07-.05-.11-.07.03-.45.05-.9.08-1.35.04-.66.16-1.36-.44-1.93zM61 6.47c-.41-.52-.93-.39-1.6-.22.22-.4.37-.7.54-1 .2-.35.41-.7.68-1.15.23.18.53.49.88.66.45.23.52.61.62 1.06-.37.21-.74.43-1.12.65zm196.53 5.66c.3-.42.59-.84.86-1.21.41.04.8.08 1.33.13-.04.35-.1.78-.15 1.2-.02.13-.06.25-.07.38-.03.37-.38.55-.7.34-.44-.27-.86-.56-1.27-.84zM203.2 6.94c-.08.11-.16.23-.24.35-.41.61-.93.65-1.48.14-.2-.18-.46-.3-.69-.45-.12-.08-.22-.17-.33-.26.11-.12.19-.28.33-.35.23-.12.49-.18.74-.27.25-.09.49-.18.72-.26.32.36.64.73.95 1.1zm13.42 6.48c.55-.23.96.13 1.38.41.84.55 1.66 1.1 2.49 1.66-.6.69-.97.66-1.82-.15-.68-.65-1.36-1.28-2.05-1.92zm80.49 12.23c.4.06.8.12 1.19.17-.16.43-.35.93-.54 1.43-.22.08-.5.13-.69.28-.24.18-.37.14-.56-.05-.57-.58-.57-1.02.06-1.54.17-.14.35-.27.53-.4 0 .04 0 .07.01.11zM78.25 3.63c.25 1.55.32 1.68 1.25 2.36-.35.25-.68.5-1.05.77-.36-.87-.67-1.77-1.63-2.33.49-.27.94-.52 1.43-.8zm182.3-1.67h2.75c.15.88-.35 1.35-1.2 1.15-.17-.04-.37.02-.54-.03-.21-.06-.46-.15-.59-.31-.18-.21-.27-.5-.42-.81zM18.49 16.59c-.23 1.03-.47 1.96-.62 2.89-.06.39.06.81.1 1.24-.31-.36-.53-.74-.57-1.23-.04-.51-.14-1.02-.16-1.53-.02-.4.05-.79.09-1.27.36-.03.73-.07 1.16-.1zm303.8-11.45c.01.04.01.06.01.07-.03.23-.01.49-.1.69-.17.39-.38-.04-.58-.01-.23.03-.47.04-.69 0-1.09-.22-2.17-.47-3.18-.69.68-.09 1.43-.25 2.19-.26.77-.02 1.55.12 2.35.2zM26.03 21.56c-.87.2-1.66.51-2.37 1.05-.15.11-.33.18-.51.25-.67.25-1.35.48-2.07.74.12-.37.18-.75.36-1.05.09-.15.4-.19.62-.25 1.09-.27 2.18-.54 3.28-.78.22-.06.46.02.69.04zM268.19 5.55c.01.09.01.18.03.26.16 1.03.81 1.41 1.78 1.06.11-.04.23-.03.34-.05-.07.09-.12.21-.21.26-.38.22-.76.44-1.16.62-.53.24-1.06-.01-1.28-.58-.03-.08-.06-.16-.09-.25-.28-.83-.27-.86.59-1.32zm-45.61-.01c-.13-.48-.26-.94-.4-1.5.79-.09 1.59-.18 2.39-.28.03.05.07.09.1.14-.28.38-.56.75-.82 1.13-.33.47-.87.32-1.27.51zM22.83 28.26c-.2.5-.4.96-.61 1.47-.47-.51-.8-1.28-1.7-1.36.33-.68 1.06-.69 1.55-1.07.29.35.53.66.76.96zm35.82-16.45c.29.31.55.55.77.82.07.08.06.24.04.36-.06.37-.16.74-.23 1.11-.04.2-.1.31-.32.17-.44-.27-.89-.53-1.25-.75.36-.61.66-1.14.99-1.71zM9.85 2.14c.46-.61 1.15-.1 1.7-.33.09.46.18.84.25 1.23.06.32-.45.71-.84.57-.3-.1-.74-.08-.72-.65.01-.24-.22-.49-.39-.82zm68.29 25.61c-.25-.03-.63 0-.65-.58-.01-.32-.2-.64-.29-.92.46-.28.9-.55 1.34-.81.18.33.38.69.55.99-.29.4-.6.82-.95 1.32zM201.89 9.71c.52.29 1.03.59 1.44.82.11.54.21 1 .31 1.47-.22.13-.54.32-.85.51-.32-.87-.64-1.78-.97-2.69.02-.03.04-.07.07-.11zm94.69.75c.28-.85.26-1.3-.1-1.87.41-.1.83-.21 1.32-.33.02.11.1.31.1.52.01.49.13.99-.25 1.46-.22.28-.36.43-.7.27-.09-.06-.22-.03-.37-.05zM197.1 1.88v.9c-.41.07-.81.14-1.08.19-.59-.23-1.12-.43-1.66-.64v-.45h2.74zm-55.65 28.76c-.14-.74.28-1.2.64-1.7.14.05.28.1.41.14.5.17.9.76.67 1.21-.13.24-.59.31-.92.42-.11.04-.25-.06-.38-.07-.13-.01-.27 0-.42 0zM15.94 17.33c.09.33.21.65.27.98.06.32.06.64.1.96.04.34-.21.71-.54.64-.23-.05-.54-.3-.6-.52-.1-.39-.11-.85 0-1.24.08-.31.39-.55.6-.83.06 0 .11.01.17.01zM63.29 1.29c-.02.13-.01.22-.04.23-.54.2-.65.73-.88 1.16-.14.27-.28.42-.6.16-.31-.24-.68-.4-1.01-.61-.11-.07-.17-.22-.25-.33.1-.05.19-.12.3-.14.82-.15 1.63-.31 2.48-.47zm-6.94 4.04c.47.09.9.18 1.39.28-.53.83-1.42 1.48-1.4 2.6h-.75c.31-.95.96-1.79.76-2.88zm51.27 5.38c.06.55-.4 1.45-.86 1.71-.1.06-.2.13-.29.2-.25.2-.41.13-.52-.16-.27-.69-.26-.73.33-1.15.12-.08.25-.16.34-.27.25-.34.57-.45 1-.33zm67.26 18.44c-.23.27-.45.51-.65.77-.14.18-.27.15-.44.04-.2-.14-.43-.24-.65-.36.06-.45.11-.93.17-1.41.58-.07 1.28.36 1.57.96zM73.36 6.88c-.07.04-.16.09-.25.13-.04.02-.08.03-.13.05-.51-.72-.78-1.5-.77-2.43.37-.12.78-.24 1.28-.39-.38.65-.47 1.22-.13 1.84.09.2 0 .5 0 .8zm223.05 17.74c-.73.66-1.39 1.29-1.39 2.24l-1.05-1.05c.7-.45 1.36-1.23 2.44-1.19zm-145.25-5.33c-.06.2-.06.2-1.09.68-.35-.2-.67-.39-1.02-.6.09-.54.71-.69 1.1-1.06.04-.03.25.05.32.13.22.25.43.52.69.85zm-88.26 7l-1.56 1.56c-.01.01-.03.01-.04.01-.2.05-.17.53-.53.29-.19-.13-.4-1.02-.29-1.19.16-.26.28-.48.71-.38.51.13 1.07.07 1.48-.38.02-.02.08-.02.12-.02.01 0 .02.02.11.11zm6.17 2.83c-.18.97-1.33 1.5-1.92 1.59-.07.01-.26-.21-.24-.26.16-.41.33-.82.56-1.19.06-.11.32-.12.49-.13.36-.02.72-.01 1.11-.01zm63.15-1.13c-1.12.52-2.23 1.03-3.36 1.55-.29-.17-.43-.45-.26-.77.16-.3.44-.46.83-.34.57.18 1.09 0 1.5-.41.21-.21.39-.24.65-.15.19.08.41.08.64.12zM15.42 25.5v1.8c-.93.44-1.25-.18-1.61-.78.49-.31.99-.63 1.61-1.02zm109.81 4.42c.74.07 1.43.11 2.12.2.3.04.37.28.18.5-.31.38-1.19.65-1.61.45-.14-.07-.24-.25-.33-.4-.13-.22-.23-.47-.36-.75zm200-28.79c.11.25.21.48.33.77-.3.26-.6.54-.93.79-.08.06-.27.04-.36-.02-.34-.24-.65-.5-1.03-.79.68-.25 1.32-.5 1.99-.75zM82.02 7.56c.51.45.9.83 1.19 1.37.37.68-.34 1.01-.22 1.56-.4-.14-.85-1.52-.97-2.93zm171.23-3.69c-.29-.06-.38-.2-.28-.49.14-.4.2-.83.36-1.22.04-.11.39-.22.44-.18.43.43 1 .39 1.52.52.05.01.09.07.27.2-.27.1-.48.25-.64.21-1.01-.23-1.42-.04-1.67.96zm55.51-1.91c.12.42.3.76.29 1.1-.01.35-.19.69-.32 1.1-.11.03-.29.1-.48.11-.18.01-.43.01-.54-.1-.08-.08-.01-.36.07-.51.29-.53.6-1.04.98-1.7zM11.02 31.02c-.13-.43-.24-.79-.35-1.16.36-.12.77-.28 1.19-.39.13-.03.3.04.42.12.06.04.07.22.03.31-.15.35-.27.74-.53.99-.16.17-.54.11-.76.13zm9.08-17.04c.16-.32.22-.65.42-.8.69-.51 1.27-.3 1.53.53.08.25.03.5-.34.46-.5-.05-1.01-.12-1.61-.19zm260.48 7.8c.06.38.12.66.13.95 0 .09-.16.22-.27.25-.32.08-.66.16-.99.14-.16-.01-.42-.2-.44-.34-.03-.19.08-.51.22-.58.42-.18.89-.28 1.35-.42zM317.3 3.51c.14-.42.28-.83.42-1.22 1 .01 1.23.66 1.2 1.53-.52-.1-1.06-.2-1.62-.31zm-86.03 6.66c-.18.57-.34 1.08-.49 1.59-.09.3-.31.29-.53.24-.23-.05-.41-.17-.36-.46.04-.23.06-.47.1-.7.05-.29.21-.48.51-.52.22-.04.45-.09.77-.15zm92.61 2.72c.12.13.3.24.35.4.18.48.42.97.44 1.46.02.35-.26.73-.42 1.08-.01.03-.18-.01-.28-.02l-.58-.03c.21-.45.5-.89.6-1.36.1-.47.24-1.02-.23-1.45a.358.358 0 0 0 .12-.08zM64.34 30.81c-.56-.52-1.07-1.01-1.62-1.52.32-.21.56-.56 1-.34.57.28.79.92.62 1.86zm209.67-1.91c-.2.15-.4.3-.59.46-.24.2-.47.41-.7.62-.14.14-.21.49-.49.22-.15-.15-.28-.41-.27-.61.02-.5.35-.76.95-.81.34-.03.69-.01 1.03-.01.03.04.05.08.07.13zm-123.98-2.81c.15.37.09.77-.16 1.17-.26.43-.62.47-.93.08-.19-.25-.41-.49-.59-.71.58-.19 1.13-.36 1.68-.54zm-41.18-13.88c.09-.46.16-.81.22-1.09.54.25.99.42 1.4.66.23.13.39.37.62.59-.78.38-1.43-.18-2.24-.16zM84.58 27.3c-.24-.19-.46-.38-.73-.6.43-.36.82-.68 1.23-1.03.25.12.55.27.9.45-.47.4-.94.79-1.4 1.18zm161.59-4.1c.07.66.14 1.32.2 1.98-.41.08-.77.16-1.26.26.29-.81.55-1.53.81-2.25.08.01.16.01.25.01zm68.82-2.36c-.22.45-.47.98-.75 1.57-.29-.31-.61-.57-.79-.9-.1-.18.05-.5.1-.75.01-.02.14-.03.22-.03.4.03.79.07 1.22.11zm-93.13 7.07c-.89.09-1.79.19-2.68.28l-.03-.13c.48-.33.97-.66 1.41-.97.45.21.88.42 1.31.63-.01.07-.01.13-.01.19zM22.98 11.81c.47-.04.62.24.72.64.1.42.26.83.4 1.28-.12.05-.27.11-.4.17-.71-.58-.99-1.41-.72-2.09zm58.93 13.63c.16-.34.35-.72.55-1.13.42.26.88.53 1.39.84-.24.21-.44.39-.66.56-.05.04-.15.02-.23 0-.34-.08-.69-.18-1.05-.27zm-55.92 3.54c.07-.82.78-.76 1.31-.91.25-.07.49.13.43.46-.05.25-.14.5-.21.76-.53-.11-1.04-.21-1.53-.31zm27.75-18.39c-.1-.09-.14-.13-.18-.16-.52-.41-.51-.41-.22-1 .21-.43.4-.87.61-1.3.04-.07.11-.12.2-.22.17.95-.09 1.79-.41 2.68zm171.4 5.07c-.04-.48.27-.94.72-1.01.17-.02.44.04.52.16.22.31.22.68-.06.97-.16.17-.36.3-.62.06-.12-.12-.36-.12-.56-.18zm85.43 1.08c.51.01.99-.78 1.46-.03-.18.37-.37.74-.61 1.24-.35.15-.63-.16-.85-1.21zm-89.32 4.78c-.4-.17-.81-.35-1.23-.53.36-.2.71-.41 1.07-.59.08-.04.21-.03.3.01.31.13.62.28.9.4-.32.22-.67.45-1.04.71zm47.49-10.71c-.94-.22-1.12-.9-1.08-1.73.52-.24.65.31.94.57.39.36.14.77.14 1.16zM5.83 5.78l.64.12c.2.04.4.08.6.13-.07.62-.09 1.22.42 1.71-.59.08-.56.07-.79-.44-.17-.36-.43-.68-.66-1.02-.1-.15-.2-.29-.3-.43a.55.55 0 0 0 .09-.07zm162.28.15c-.14.65-.31.75-.92.52-.07-.03-.15-.02-.21-.06-.16-.11-.39-.21-.43-.36-.04-.15.1-.37.22-.51.2-.2.43-.18.67 0 .21.16.45.28.67.41zm94.41.21c-.14.02-.31.1-.42.05-.55-.25-1.08-.54-1.73-.87.58-.23 1-.39 1.46-.57-.04.59.17.99.67 1.23.01.05.01.1.02.16zM59.72 29.65c-.52-.43-1.03-.86-1.58-1.32.19-.21.36-.42.56-.64.82.36.77 1.23 1.1 1.87-.02.02-.05.06-.08.09zm215.74-8.36c-.4.16-.81.33-1.21.49-.26.1-.41.06-.45-.27-.05-.31-.19-.6-.31-.97.67.21 1.33.41 1.98.62 0 .04-.01.08-.01.13zM54.73 16.7c.36-.3.67-.57.97-.83.2.24.42.52.64.8-.45.77-1.13.76-1.61.03zm77.67 6.46v-1.19c.43.08.9.17 1.37.26-.03.18-.08.44-.14.75-.37.05-.76.11-1.23.18zm46.27 1.16c-.18.54-.32.98-.46 1.38-.12-.13-.31-.33-.47-.54-.28-.38-.3-.86-.06-1.04.33-.23.69-.14.99.2zM195.93 6.8c.15-.18.27-.42.47-.52.66-.35.79-.6.54-1.3-.04-.11-.09-.21-.15-.33.22-.14.42-.27.66-.43v1.84c-.49.26-.97.53-1.46.79-.02-.02-.04-.03-.06-.05zm-50.01-2.54c-.08.42-.17.95-.27 1.51-.51-.24-1.01-.48-1.52-.72.6-.27 1.23-.55 1.79-.79zm55.5 21.85c-.37-.08-.71-.18-1.07-.23-.48-.07-.28-.4-.25-.64.03-.24.15-.43.45-.29.01.01.03.02.04.02 1.03.34.83.05.83 1.14zM72.08 31.26c-.26-.26-.5-.5-.74-.75.15-.17.39-.45.62-.74.19-.23.39-.34.7-.13-.2.56-.41 1.13-.58 1.62zm184.29-27.4c.46-.19.84-.39 1.25-.49.11-.03.33.22.42.39.06.11.04.33-.03.43-.22.33-.52.36-.85.13-.23-.15-.48-.28-.79-.46zM34.12 30.97h-.85c.15-.34.3-.67.44-1.01.13-.31.32-.44.63-.24.15.1.28.21.4.29-.22.35-.42.66-.62.96zm89.13-5.49c.62.18 1.2.25 1.76-.12.31-.21.44-.14.44.25-.87-.08-1.54.19-1.79 1.11-.73-.48-.78-.64-.41-1.24zm-18.06-2.39c.52.34 1 .66 1.5.99-.58.56-.61.57-1.16.18-.3-.21-.49-.81-.34-1.17zm-17.07-8.97c-.2-.08-.41-.16-.76-.31.64-.46.59-1.42 1.64-1.46-.31.61-.57 1.14-.88 1.77zM253.5 5.75c.38-.08.69-.25.91-.17.19.06.26.42.41.63.13.2.3.37.42.57.05.08.02.21.03.31-.11-.01-.25.03-.31-.03-.47-.4-.92-.83-1.46-1.31zm-128.67 22.3c-.58-.34-.28-.82-.12-1.19.09-.21.47-.3.72-.44.6.96-.39 1.13-.6 1.63zM88.41 21.9c-.58.15-1.06.41-1.11.94-.19-.34-.43-.79-.69-1.26.6 0 1.24-.26 1.8.32zm139.79-7.48c.45-.11.86-.22 1.4-.36-.54.55-.62 1.36-1.53 1.51l.13-1.15zm-9.16 9.57c.08.24.19.53.26.82.06.26-.08.42-.33.33-.34-.12-.67-.28-1-.45-.07-.04-.14-.18-.12-.25.02-.07.13-.14.22-.17.3-.1.6-.18.97-.28zM101.4 17.8c-.12-.34.62-.85 1.15-.73.26.06.5.14.78.22-.06.2-.13.4-.17.51h-1.76zM209.53 7.41V8c-.42-.11-.85-.17-1.25-.33-.15-.06-.32-.37-.28-.49.06-.2.28-.38.57-.22.31.16.63.29.96.45zm-56.32 20.9c.12-.44.19-.82.32-1.17.06-.17.22-.36.37-.41.08-.03.31.17.38.32.07.13.07.4-.01.48-.3.28-.5.75-1.06.78zm64.43-1.28c-.09-.41-.2-.79-.25-1.17-.03-.2.08-.29.31-.17.39.19.8.35 1.21.53-.4.25-.82.53-1.27.81zM153.62 8.31c-.16-.47-.32-.96-.47-1.39.37.14.78.26 1.16.45.18.09.28.32.43.49-.39.17-.76.31-1.12.45zM22.21 17.97c-.07.19-.13.34-.21.55-.78-.56-1.58-1.09-2.63-1.12.04-.29.08-.55.13-.87.77.77 1.56 1.43 2.71 1.44zm-3.25 8.39c-.67.46-.74 1.43-1.72 1.52.19-.43.31-.83.53-1.17.24-.39.66-.4 1.19-.35zM273.17 4.08c.07-.05.17-.11.25-.19.51-.45.71-.47 1.27-.1.22.14.42.3.72.51-.19.06-.31.14-.41.13-.6-.1-1.21-.23-1.83-.35zm-72.83 23.15c.21.25.41.5.65.78-.62.37-.61 1.04-.74 1.62-.08-.63-.17-1.26-.23-1.89-.01-.17.1-.35.16-.53.05.01.1.02.16.02zm66.82 2.42c.31.54.56.96.83 1.42h-1.41c.18-.44.35-.87.58-1.42zM164.9 28.14c-.21-.45-.37-.78-.52-1.12.29-.08.54-.18.81-.23.14-.03.33-.01.43.07.06.05.05.28-.02.38-.19.29-.43.56-.7.9zm-7.65-5.1c-.37-.02-.6-.04-.84-.04-.25.01-.49.05-.74.06-.08 0-.16-.03-.24-.05.04-.08.06-.18.12-.24.24-.2.49-.37.73-.56.2-.17.35-.18.49.07.12.22.26.42.48.76zM259.18 4.05c-.06-.23-.1-.45-.17-.65-.08-.2-.19-.39-.3-.61.22-.21.43-.49.76-.19.46.43.37.89-.29 1.45zM150.09 8.51c.07.22.1.35.13.43-.62.26-1.23.52-1.97.83.29-.38.47-.75.76-.95.29-.19.7-.21 1.08-.31zM14.64 30.99h-1.66c.12-.29.24-.56.33-.77.37.09.73.15 1.06.27.16.06.27.24.4.37a.803.803 0 0 0-.13.13zm260.2-8.42l.14 1.53c-.35-.33-.92-.2-.99-.78-.09-.67.55-.43.85-.75zm-216.2.92c0-.12-.03-.25.01-.36.25-.74.28-1.43-.22-2.1-.06-.09 0-.3.05-.43.08-.23.19-.45.28-.68.06.02.1.03.1.04.04.64.08 1.28.1 1.91.01.41.02.81-.01 1.22-.01.15-.11.29-.16.44a.833.833 0 0 0-.15-.04zm84.38-20.11c.47.08.96.17 1.44.26v.13c-.57.22-1.14.45-1.71.67.09-.35.18-.69.27-1.06zm-21.8 23.51c-1.15.22-1.78.02-2.11-1.06.72.35 1.41.71 2.11 1.06zm90.84-10.47c-.39-.1-.79-.21-1.23-.32.03-.25.04-.54.11-.81.02-.07.28-.17.3-.14.31.38.6.77.9 1.16-.03.03-.06.07-.08.11zm-111.17 5.12c.16.21.35.45.58.76-.33.09-.6.17-.87.24-.28.07-.55.13-.9.13.4-.37.78-.74 1.19-1.13zm220.7-14.38c.27.63.22.74-.14 1.28-.17.25-.21.59-.32.92-.24-.14-.52-.3-.8-.46 1.02-.18 1.04-1.02 1.26-1.74zM51.26 22.47c-.44-.7-.25-1.43-.3-2.15.22.04.41.07.62.11-.1.68-.21 1.34-.32 2.04zm165.68-2.93l-.31-1.52c.58-.16 1.14-.3 1.69-.45.02.02.03.04.05.05-.07.05-.15.15-.22.15-.86.03-1.02.72-1.01 1.44v.34c-.07 0-.14-.01-.2-.01zm57.35 10.36c.39.25.23.48.14.76-.22.67-.75.37-1.24.35.37-.37.73-.73 1.1-1.11zm-74.04-15.24c-.3.07-.58.14-.89.21-.21-.48.1-.89.15-1.32.13.05.33.06.38.14.15.29.23.6.36.97zm46.24 15.88c-.36-.67-.63-1.17-.9-1.68.03-.02.05-.03.08-.05.39.26.79.51 1.17.8.07.05.09.26.04.36-.08.17-.22.33-.39.57zM58.47 25.1c-.39.21-.84.45-1.3.7l-.06-.06c.31-.46.62-.91.93-1.37.33.09.6.22.43.73zm-36.78-5.11c-.14.43-.27.83-.44 1.33-.25-.45-.44-.76-.6-1.09-.04-.07-.04-.21 0-.27.03-.05.16-.06.25-.05.21 0 .43.03.79.08zm231.75-4.3c.16.16.45.33.43.46-.03.2-.25.39-.42.54-.16.14-.37.24-.56.34-.07.04-.17.03-.25.05.02-.09.01-.2.06-.27.22-.36.46-.71.74-1.12zM116.83 28.35c-.01-.22-.06-.46-.02-.67.11-.54.26-1.08.39-1.63.25.13.4.32.27.69-.18.52-.32 1.06-.47 1.59-.06.01-.11.02-.17.02zM273.87 13.6c-.18.08-.38.17-.58.24-.13.04-.28.05-.42.07.01-.19-.04-.45.06-.57.21-.25.5-.43.82-.68.04.35.08.61.12.94zM33.44 6.13c.58.47 1.03.84 1.49 1.22-.62.13-1.21-.02-1.42-.43-.1-.2-.05-.47-.07-.79zm11.9 11.59c.37-.03.7-.05 1.05-.08.22.34-.07.81-.76 1.1-.03-.17-.06-.34-.1-.5-.05-.17-.12-.33-.19-.52zm167.38 3.53c.44.6.88 1.21 1.38 1.89-.51-.5-1.37-.45-1.49-1.3-.03-.2 0-.41 0-.61.04.01.07.01.11.02zm-3.07 7.17c-.55.47-.31 1.08-.42 1.7-.43-.65-.43-1.31-.4-2.03.27.1.51.2.82.33zm47.53-11.54c-.33-.04-.67-.07-1.06-.11.15-.41.28-.77.45-1.24.28.48.49.84.71 1.21a.684.684 0 0 0-.1.14zm-43.45-.37c.44-.6 1-.14 1.53-.27.01.15.02.28.04.46-.55-.09-1.13.57-1.57-.19zM79.87 19.29c.21-.38.42-.77.63-1.17.16.1.32.15.4.25.08.11.17.36.11.41-.28.29-.56.61-1.01.62a.689.689 0 0 0-.13-.11zm-63.1 5.76c.16.24.3.44.41.61-.22.4-.42.77-.64 1.16-.07-.53-.13-1.04-.2-1.59.11-.05.25-.11.43-.18zm35.4-8.47c.16.09.26.14.36.21.31.21.61.43.94.66-.63.19-1.24.43-1.47-.54.01-.04.08-.17.17-.33zM24.1 19.1c.04.24.12.48.1.72-.02.21-.16.41-.25.61-.17-.08-.35-.15-.5-.26-.11-.08-.17-.23-.23-.32.3-.26.6-.51.88-.75zm295.26-7.36c.64.47.64 1.16.91 1.76-.69-.11-.95-.6-.91-1.76zm-268.9 6.13c-.05.33-.06.63-.15.9-.05.14-.24.24-.36.36-.11-.13-.3-.25-.32-.4-.08-.51.08-.65.83-.86zm255.51-1.06c.28.24.57.48.85.72-.21.23-.42.45-.59.64-.15-.27-.3-.49-.4-.73-.06-.16-.05-.34-.07-.51.07-.05.14-.08.21-.12zm-109.76 9.75c-.1.25-.21.52-.33.81-.23-.33-.48-.67-.75-1.06.17-.13.34-.27.53-.42.18.21.35.42.55.67zm-95.36-13.43l1.78 1.15c-1.09.43-1.38-.45-1.78-1.15zm-78.6 3.66c-.39.26-1.24-.11-1.84-.87.69.13 1.41.18 1.84.87zm147.04 12.97c.42.18.75.32 1.06.45.03.23.07.44.1.66-.81 0-.9-.07-1.16-1.11zM273 9.21c-.3.36-.59.71-.89 1.06-.29-.21-.41-.54-.25-.82.25-.42.68-.4 1.14-.24zm29.95 16.7c-.57-.38-1.14-.77-1.71-1.15l.06-.21c.21 0 .43-.04.63.01.24.06.37.21.44.51.06.28.38.5.58.75v.09zM18.43 13.87c.16-.39.31-.75.46-1.1.5-.01.54.03.4.48-.03.11-.06.22-.1.33-.18.54-.25.57-.76.29zm243.31-5.12c-.21 1-.29 1.05-1.06.78v-.56c.34-.07.68-.14 1.06-.22zm56.79 5.34c-.39.23-.95.25-1.07.04-.12-.23-.01-.64.2-.73.24-.1.71.26.87.69zM46.37 13.06c-.21-.12-.43-.26-.65-.38.13-.87.38-1.12.8-.92-.05.44-.1.85-.15 1.3zm205.82 15.85c.34.05.61.09.68.51.03.17.35.29.55.46-.27.26-.61.14-.92.01-.48-.2-.23-.63-.31-.98zM46.42 14.31c-.38.22-.7.4-1.03.59-.19-.23-.46-.41-.27-.74.06-.1.24-.22.32-.2.32.08.61.21.98.35zM98.4 30.83c-.4-.06-.81-.08-1.19-.21-.07-.02-.01-.44-.01-.68.04-.02.09-.05.13-.07l1.12.73c-.02.08-.04.16-.05.23zM257.18 9.7c.41.59.4.66-.21 1.44-.1-.17-.24-.3-.25-.44-.05-.55.11-.86.46-1zm-22.37-6.43c-.43.34-.86.68-1.3 1.02-.32-.29-.27-.68.16-.82.36-.12.72-.21 1.08-.32.02.05.04.08.06.12zm33.31 14.33c-.45-.22-.9-.44-1.46-.71.36-.16.6-.27.92-.41.22.34.44.68.65 1.02-.03.04-.07.07-.11.1zm-54.16 2.6c.52.48.55.59.36 1.55-.29-.45-.53-.83-.78-1.23.16-.13.28-.22.42-.32zm58.6-.65c.23-.24.46-.48.7-.72.26.22.56.48.93.81-.62-.04-1.14-.06-1.63-.09zM1.68 13.12c.06-.09.17-.23.32-.44.23.45.43.85.65 1.27-.13.12-.26.24-.4.36-.18-.38-.36-.76-.57-1.19zm295.33 1.89c.48.26.96.52 1.49.82-.28.17-.48.29-.67.4-.3-.36-.6-.73-.9-1.09.03-.04.06-.08.08-.13zm-69.9 4.86c.54.32 1.1.65 1.67.99-.09.21-.18.44-.27.66-.48-.56-.94-1.11-1.4-1.65zm80.69 10.79c-.45.13-.9.25-1.36.38-.05-.27-.09-.46-.15-.78.52.09 1 .17 1.48.24 0 .06.01.11.03.16zM174.66 6.79c-.37 0-.69-.02-1.02.01-.37.03-.48-.14-.45-.47.78-.19 1.24-.06 1.47.46zm-89.3 10.59c.6-.08 1.18-.16 1.88-.26-.16.2-.24.41-.38.46-.93.31-1.01.29-1.5-.2zm134.33 4.67c-.49.48-.97.55-1.3.19.28-.6.59-.66 1.3-.19zm-164.04.61c1.17-.21 1.13.63.77 1.54-.07-.25-.11-.55-.24-.81s-.34-.48-.53-.73zm213.42 5.11c.7.36.8.78.38 1.23-.1-.06-.21-.11-.32-.18-.1-.06-.18-.14-.29-.23.08-.27.15-.53.23-.82zm-172.38-.33c.16-.41.38-.45.73-.25.25.15.54.22.82.33-.57.37-.73.36-1.55-.08zm9.37-1.53c.5.29.97.56 1.45.83-.81.43-.85.56-1.45-.83zm201.78-9.05l-.77-.92c.37-.42.76-.13.9.04s.01.57 0 .86c-.04.01-.09.01-.13.02zm-32.22-2.78c-.15.56-1.29 1.04-1.93.82.61-.25 1.21-.51 1.93-.82zM103.55 3.61c-.07-.24-.01-.36.28-.42.73-.15.77-.15 1.12.56-.47-.05-.93-.09-1.4-.14zm165.37 9.81c.05-.34.11-.67.16-1.04.24.1.48.19.71.29-.13.72-.18.76-.87.75zM52.47 24.78c-.05.17-.07.34-.15.49-.1.19-.25.36-.38.53-.07.09-.17.16-.26.24-.07-.12-.18-.23-.21-.36-.02-.1.01-.27.09-.33.24-.21.51-.39.77-.57.05.01.1.01.14 0zm69.28 1.18c-.48-.21-.94-.42-1.4-.62l.03-.09h1.06c.48.01.59.22.31.71zm-13.83-5.46c.06.65.15 1.3.18 1.95.01.17-.13.35-.21.53-.07-.01-.14-.03-.21-.04.02-.25.06-.5.07-.75.02-.34.02-.69.02-1.03v-.66h.15zM310.93 2.86c.15-.02.28-.07.38-.04.16.04.41.11.44.22.05.21.05.5-.06.66-.11.17-.39.22-.51-.1-.08-.23-.17-.48-.25-.74zM172.89 25.29c.01.53-.16.69-.84.82-.11-.88-.08-.91.84-.82zm-144.07-.08c.49.38.99.75 1.54 1.17-.37.03-.65.06-.85.07-.26-.4-.5-.78-.75-1.17.02-.02.04-.04.06-.07zm56.69-4.75c-.39-.61-.4-.87-.02-1.22.08.11.15.22.23.32.48.59.48.59-.21.9zm43.61 5.61h-.87c.1-.35.19-.65.28-.95.67.35.7.41.59.95zM266.76 2.71c-.59.27-1.16.56-1.35 1.27.11-.43.18-.86.33-1.27.12-.31.62-.3 1.02 0zm-51.26 8.1c.24-.37.47-.72.7-1.07.39.14.36.31-.19 1.26-.17-.06-.33-.12-.51-.19zM25.4 20.24c.23-.29.45-.58.72-.92.18.27.31.47.48.73-.39.13-.74.24-1.09.36-.04-.06-.08-.11-.11-.17zM105.8 6.3c-.36-.49-.71-.97-1.05-1.44 1.01.26 1.21.52 1.05 1.44zm-6.3-3.66c.23-.77.27-.79 1.2-.65-.11.4-.48.61-1.2.65zm212.91 26.92c-.18-.56-.36-1.14-.57-1.81l.16-.14c.41.01.66 1.44.41 1.95zM269.21 8.8c.64-.35 1.25-.69 1.87-1.03.02.02.04.04.06.05-.11.11-.2.25-.33.32-.75.4-.91.54-1.22 1.1-.12-.15-.24-.29-.38-.44zM133.06 25.96c-.02-.49.25-.78.57-1.05.52.69.51.7-.3.97-.08.02-.16.05-.27.08zM316.69 2.21c-.2.46-.4.91-.6 1.37-.04-.01-.08-.03-.11-.04V2.25c.17-.04.38-.08.59-.12.04.02.08.05.12.08zm-46.95 15.32c-.55-.56.11-.95.12-1.44.39.46.34 1.03-.12 1.44zM203.1 25.6l1.65-.39c-.6.38-1.13.7-1.65 1.03v-.64zM57.91 7.08c.49.33.07.7.15 1.02-.06.02-.08.04-.11.04-.19 0-.37-.01-.56-.02.08-.21.14-.43.23-.63.07-.14.18-.26.29-.41zm-53.99.67c-.06-.77.17-1.25.67-1.37.06.47-.3 1.21-.67 1.37zm58.84-1.1c.1.21.16.34.23.48-.47.03-.83.6-1.44.22.43-.24.8-.46 1.21-.7zm8.68.65c-.33-.18-.67-.37-1.04-.57.11-.19.21-.38.37-.66.29.43.53.79.77 1.14-.04.03-.07.06-.1.09zm199.85-1.89c-.26-.24-.52-.48-.77-.72.01-.06.03-.12.04-.18.21-.03.56-.15.6-.08.15.27.2.59.29.89-.05.03-.11.06-.16.09zM101.96 28.17c-.09.33-.18.66-.27.98-.25-.07-.49-.13-.86-.24.4-.32.73-.57 1.05-.83.03.04.06.06.08.09zm46.28-26.2h.86c-.12.37-.23.7-.34 1.04-.04-.01-.08-.01-.11-.02-.14-.33-.27-.66-.41-1.02zm7.77 23.36c.06.09.16.23.23.34-.36.29-.69.56-1.04.84-.06-.1-.16-.25-.2-.32.34-.29.66-.56 1.01-.86zm19.58 5.59c-.19-.24-.29-.36-.44-.55.19-.14.38-.29.57-.43.11.16.34.34.31.47-.04.18-.26.33-.44.51zM76.03 13.67c.33.24.09 1.27-.34 1.48-.28-.57.19-.97.34-1.48zm1.82-2.55c-.43.15-.77.28-1.09.39-.09-.27-.18-.53-.28-.82.43.13.86.27 1.37.43zm-19.6 4.16c-.26.17-.53.35-.85.55-.06-.29-.11-.54-.18-.89.4.07.71.13 1.03.18v.16zm-.34 1.48c.39-.26.73-.48 1.06-.71.04.02.07.04.11.06-.04.2-.03.44-.14.57-.2.24-.7.26-1.03.08zm-7.53 6.29c-.21.11-.41.22-.64.35l.09-1.36c.04-.02.08-.03.11-.05.14.34.28.68.44 1.06zm166.78-11.22c-.22-.1-.24-.27-.1-.55.18-.35.25-.74.41-1.1a.79.79 0 0 1 .36-.34c-.22.66-.44 1.31-.67 1.99zm-115.65-1.51c-.2-.06-.37-.11-.58-.17.29-.54.57-1.05.85-1.56.02.01.05.02.07.02-.09.27-.22.53-.27.81-.06.27-.05.56-.07.9zM79.96 7.27c-.31.4-.61.8-.91 1.2-.32-.38-.31-.42.09-.73.25-.19.49-.39.74-.58.02.04.05.08.08.11zm244.91 22.62c.23-.24.87-.15.93.14.02.09-.1.27-.2.31-.15.05-.37.08-.48 0-.13-.08-.18-.29-.25-.45zM76.72 21.98c.19-.27.38-.53.57-.81.57.35.09.68.09 1.05-.24-.09-.44-.16-.66-.24zm9.14-8.04c.11.3.22.59.35.93h-.72c-.15-.41-.01-.71.37-.93zM8.31 30.99c-.02-.21-.04-.4-.07-.61.34-.38.53-.27.8.61h-.73zm65.99.89c-.43.23-.85.22-1.23-.11.37-.47.59-.46 1.23.11zm80.58-28.39h1.37c-.1.22-.14.44-.27.54-.07.06-.3-.05-.45-.13-.2-.09-.37-.22-.65-.41zm-.18 27.1l.85-.76.11.08c-.04.26-.07.52-.11.8h-.77a.417.417 0 0 1-.08-.12zM16.09 24.24h-.97c.01-.25.02-.48.04-.77.33.23.63.44.93.66.01.04 0 .07 0 .11zm288.59 4.87c-.23-.3-.45-.59-.68-.88l.1-.1c.36.18.73.37 1.13.57-.2.14-.35.26-.55.41zm-28.89-11.86c-.01-.43.34-.55.61-.73.05.03.08.04.1.06.12.17.25.34.37.52-.19.02-.38.03-.57.05-.16.02-.32.06-.51.1zM174.36 4.07h-.78c-.03-.26-.06-.5-.09-.74.03-.03.05-.07.08-.1l.87.72a.363.363 0 0 1-.08.12zM122.23 29.7c-.24-.32-.46-.6-.77-1 .44.15.83.17 1.04.37.3.27-.09.41-.27.63zM80.28 14.46c.08-.26.15-.52.24-.81.24.14.46.28.74.45-.32.19-.59.35-.85.51-.04-.05-.09-.1-.13-.15zm239.25 15.7c.16-.08.28-.14.39-.2.47.74.54.66.15 1.14-.17-.32-.35-.62-.54-.94zm-92.69-4.45c.09.13.16.24.24.36-.26.23-.52.45-.8.69-.12-.5.05-.8.56-1.05zM54.21 18.35c.42.08.84.17 1.26.25-.74.46-.82.44-1.26-.25zM82.44 6.56c.26-.11.47-.29.62-.25.58.15.11.57.23.94-.28-.23-.49-.4-.85-.69zm14.71.13c.13.14.23.25.34.35-.07.21-.14.41-.21.62-.22-.18-.44-.35-.69-.55.18-.14.35-.27.56-.42zm167.5 16.38c-.15-.85-.15-.85.77-1.17-.29.46-.53.82-.77 1.17zM212.24 8.11c-.19.31-.35.57-.52.85-.11-.06-.22-.12-.36-.19.15-.3.29-.57.44-.87.16.08.3.14.44.21zm67.09 20.34c-.54.41-.94.28-1.48-.45.52.16.97.3 1.48.45zm-255.81-.97c-.2-.28-.35-.51-.51-.74.19-.13.38-.25.62-.41.06.4.15.74-.11 1.15zm203.04-15.19c-.05-.29-.11-.62-.18-1.03.3.17.55.31.81.46l-.63.57zm-95.89 11.56c.22-.47.43-.9.66-1.39.24.7.05 1.14-.66 1.39zM19.68 23.1l-1.54.36c.45-.58 1.04-.74 1.54-.36zm283.57-9.4c.11.37.22.72.38 1.23-.27-.21-.57-.33-.63-.52-.08-.22-.2-.62.25-.71zM54.21 25.3c.22.09.44.19.67.28-.07.26-.13.5-.21.79-.41-.24-.34-.69-.54-.98.03-.03.06-.06.08-.09zM24.3 4.32c-.02.15-.04.29-.07.43-.03.13-.07.25-.12.41-.15-.26-.69-.29-.38-.76.13-.2.3-.38.57-.08zm-5.7 20.06c.47-.09.89-.16 1.31-.23.02 0 .05.06.08.1-.48.53-.6.54-1.39.13zm256.02-8.39c.49-.2.93-.37 1.38-.55.01.02.02.03.03.05-.38.31-.76.62-1.16.95a9.728 9.728 0 0 1-.25-.45zm-17.4 4.36c.09-.16.16-.27.23-.41.18.06.37.1.53.19.1.06.16.19.24.29-.14.05-.28.15-.41.14-.19-.02-.36-.12-.59-.21zm-5.68-4.37c.34-.31.37-.89.96-.87-.29.82-.58 1.11-.96.87zM51.06 13.71c.47.2.87.38 1.31.56-.53.34-1.16.08-1.31-.56zm55.49 14.87c.28.04.57.08.89.12l.04.44c-.28-.04-.52-.05-.75-.13-.12-.04-.2-.2-.31-.31.06-.03.09-.08.13-.12zM260.97 7.07c.18.2.35.39.57.65-.38.1-.63.17-.9.24-.36-.38.03-.54.33-.89zM48.95 16.45c-.53-.39-.5-.59.21-1.22-.07.39-.14.78-.21 1.22zm43.27 13.18c.26.4.87.45.65 1.04-.65-.2-.71-.28-.65-1.04zM251.8 3.18c-.04-.37-.09-.75-.13-1.13h.56c-.11.41-.21.79-.3 1.16-.05-.01-.09-.02-.13-.03zM119.13 28.33c.22.32.44.62.71 1-.43-.17-.77-.3-1.13-.45.15-.19.27-.36.42-.55zM50.62 24.8c-.1-.14-.18-.26-.29-.42.44-.17.84-.34 1.25-.5l.06.09-1.02.83zm59.87 5.17c.16.24.33.47.49.71.01.02-.01.06-.01.12h-.71c.03-.28.07-.56.1-.83.04-.01.09-.01.13 0zm38.65-19.47c.37-.15.74-.31 1.14-.48-.25.71-.25.71-1.09.61a.674.674 0 0 1-.05-.13zm99.18 13.86c-.25-.31-.46-.59-.76-.97.51.24.9.42 1.35.64-.23.13-.4.22-.59.33zm-96.07-3.88c.25-.2.51-.39.83-.63.03.3.04.49.06.73-.25.03-.53.07-.8.1-.03-.07-.06-.13-.09-.2zm103.11-8.78c-.3.05-.55.1-.81.13-.11.01-.22-.02-.34-.03.06-.12.09-.28.18-.37.18-.16.78-.01.97.27zM100.97 6.25c.12-.39.24-.74.36-1.12.12.11.24.22.38.36-.26.25-.15.81-.74.76zm167.02 16.28c.4.08.8.16 1.21.25-.44.45-.44.45-1.21-.25zM166.45 1.87c-.11.39-.19.65-.27.94-.28-.1-.54-.2-.77-.28.29-.19.62-.39 1.04-.66zM81.31 24.44c-.18.22-.34.45-.54.64-.09.08-.26.06-.4.09.04-.15.03-.36.13-.44.21-.16.48-.25.73-.36.02.02.05.04.08.07zm219.77 3.02c.32.16.64.31 1 .49-.16.17-.28.29-.4.42-.24-.28-.46-.54-.69-.8.03-.03.06-.07.09-.11zM165.82 13.9v-.7c.32.04.62.07 1.04.12-.38.22-.69.39-1.04.58zm-61.58 13.39h-.27c.03-.55.06-1.07.08-1.6.03-.01.05-.01.08-.02.04.25.09.5.11.74.01.28 0 .55 0 .88zm161.9-13.62c.4.15.97-.16 1.2.45-.53.22-.85-.16-1.2-.45zm-43.42 3.62c-.09-.21-.15-.37-.23-.56.17-.09.34-.18.53-.29.09.13.19.25.3.41-.2.15-.38.28-.6.44zm35.61-9.31l-.44-.94c.69-.09.78.08.44.94zm-122.36 8.48c-.24.5-.37.55-.85.34.14-.52.29-.58.85-.34zM79.46 30.19c-.35.19-.61.33-.91.49-.07-.26-.12-.47-.18-.71.32.07.63.13 1.09.22zm85.8-14.82c.02.39.04.77.06 1.2-.16-.24-.27-.44-.41-.62-.2-.28-.32-.5.19-.52.07 0 .13-.05.16-.06zm121.25 14.86c-.41.1-.78.19-1.15.27a.571.571 0 0 1-.02-.13c.49-.44.65-.61 1.17-.14zM48.21 17.62c-.18.13-.38.28-.6.45-.09-.38-.16-.71-.23-1.02.26.18.52.36.83.57zm13.36 6.99c-.39.43-.96.44-1.47.59.52-.13.84-.71 1.47-.59zM206.9 2.37c.1.2.21.4.34.65-.27.14-.53.28-.86.45.19-.4.36-.74.52-1.1zM68.47 28.11h-.58c.04-.33.08-.64.11-.95.04-.02.09-.03.13-.05.12.33.23.66.34 1zM17 8.45c.22-.17.45-.33.74-.55-.06.53-.26.85-.69 1.02-.01-.15-.03-.29-.05-.47zm93.67 18.54l-.78-1.02c.04-.03.08-.06.11-.09.36.27.82.45.79 1.01a.401.401 0 0 1-.12.1zM21.55 5.33c.17.18.32.34.46.5-.15.1-.31.21-.47.32-.36-.31-.37-.46.01-.82zm246.11 22.83v-1.23c.35.38.39.76 0 1.23zM139.24 1.97c.31.24.59.46.89.69-.63.17-.99-.1-.89-.69zM39.13 8.47c-.22.06-.43.11-.64.17-.09-.37-.06-.68.37-.79.08.2.18.41.27.62zm162.11-3.92l.48.21c0 .04.01.09.01.13-.34.13-.67.27-1.01.4-.01-.02-.03-.05-.04-.07.18-.21.36-.43.56-.67zM50.67 9.89c.32.18.56.31.85.47-.21.15-.39.29-.64.47-.07-.33-.13-.59-.21-.94zm267.85 17.78l.31.93c-.19.05-.35.1-.54.15.03-.36.06-.7.09-1.04.05-.01.09-.02.14-.04zM226.26 4.78v.82h-.76l.76-.82zM110.77 16.03c-.84.08-.88.05-.84-.75l.84.75zM51.55 7.01l-.6-.57c.04-.06.08-.13.12-.19.21.02.47-.02.6.09.1.08.02.36.02.56-.04.04-.09.08-.14.11zm3.31 7.47c.23.49-.21.71-.25 1.05-.44-.19-.4-.26.25-1.05zm275.23 4.9c-.08-.4-.15-.76-.22-1.12.05-.01.09-.03.14-.04.16.38.32.75.49 1.16h-.41zM96.16 5.94l-.58.4c-.15-.12-.27-.22-.38-.31.21-.49.59-.19.9-.2.02.04.04.07.06.11zm170.24-1.7c.22-.21.45-.42.72-.67.14.19.23.32.32.44-.35.12-.65.22-.95.33a1.013 1.013 0 0 0-.09-.1zm36.98-.58c.1.32.17.54.24.76l-.13.1c-.2-.16-.4-.31-.61-.47.14-.12.28-.22.5-.39zM65.3 28.12c.4.06.75.11 1.16.17-.66.42-1.01.37-1.16-.17zm257.74-3.67l-.78.26v-.79c.27.18.48.32.78.53zm-215.37 1.22c-.23-.14-.47-.28-.73-.44.18-.12.33-.22.55-.37.11.26.22.5.32.73-.04.03-.09.05-.14.08zm-8.63-13.61c.29-.26.53-.19.91.26-.54.14-.54.14-.91-.26zm109.53-1.01c.74-.04.92.12.86.77-.29-.25-.56-.49-.86-.77zM12.61 27.51c-.59.03-1.17.06-1.79.08.19-.3.37-.3.67-.22.34.09.72.02 1.08.02.01.04.02.08.04.12zm156.33-13.87c.38.12.65.21.99.33-.29.12-.54.22-.84.35-.06-.25-.1-.45-.15-.68zm131.24 14.78c.18.15.35.3.56.47-.22.15-.38.26-.62.43-.02-.33-.03-.58-.05-.84.04-.02.07-.04.11-.06zm-20.02 1.53c.23-.08.37-.14.62-.23.02.31.03.57.05.83l-.09.06c-.18-.21-.37-.41-.58-.66zm44.97-6.39c-.05.22-.09.39-.14.59-.28-.25-.52-.45-.76-.66 0-.03.01-.05.01-.08.29.05.57.1.89.15zM270.02 5.74c-.3.11-.47.17-.7.26-.04-.24-.09-.46-.13-.69.03-.02.06-.04.1-.06.21.14.43.29.73.49zM68.45 32.6c-.49.14-.56-.27-.76-.54.45-.15.54-.08.76.54zm38.1-1.54c-.47-.08-.66-.43-.85-.87.53.08.63.54.85.87zM274.58 2.59c.02-.22.04-.41.06-.67.5.15.31.59.51.94-.25-.11-.4-.19-.57-.27zm20.58 10.69c-.21.13-.42.28-.64.36-.09.04-.24-.06-.36-.1.06-.09.11-.23.18-.25.26-.07.53-.09.8-.13.01.05.01.09.02.12zm-146.65 9.7c-.15.53-.51.74-1.17.69.42-.25.75-.44 1.17-.69zm-40-7.6h.39v.68c-.17-.04-.33-.08-.51-.12l.12-.56zm154.26-6.26c.18.19.34.36.5.52-.22.06-.44.12-.79.21.13-.32.2-.5.29-.73zM23.46 10.16c.29-.35.67-.46 1.25-.33-.47.19-.83.33-1.19.47-.02-.05-.04-.09-.06-.14zm204.92 1.1c-.13-.15-.34-.28-.35-.44-.01-.11.24-.25.47-.47v.83c-.05.03-.08.05-.12.08zm-149.55.55c.28-.12.56-.25.89-.4.02.21.03.33.05.48h-.9c-.02-.02-.03-.05-.04-.08zm73.21 5.93c-.11.22-.17.35-.26.52l-.33-.3c-.1-.09-.2-.17-.31-.26.02-.04.03-.08.05-.12.27.04.53.1.85.16zM40.34 2.91h-1.15c.54-.41.95-.43 1.15 0zm187.71 16.08c-.54-.16-.68-.65-.97-1.02l.14-.11c.28.37.56.75.83 1.13zm30.5 11c.16.29.32.58.47.87l-.06.09c-.13-.07-.28-.12-.37-.22-.19-.22-.28-.46-.04-.74zM1.18 3.92c.26.19.41.29.62.45-.24.14-.42.25-.71.42.04-.31.06-.53.09-.87zm283.55 25.54c-.05-.15-.09-.27-.17-.52.3-.01.56-.03.82-.04l.03.15c-.22.13-.45.27-.68.41zm-229.8-9c-.17.13-.32.25-.47.37-.08-.24-.17-.47-.25-.71.03-.02.06-.04.1-.06.18.12.37.24.62.4zM99.44 7.7c-.19-.17-.33-.3-.55-.5.34-.02.59-.03.96-.05-.17.23-.29.4-.41.55zm105.2.41c-.27-.02-.57-.05-.94-.08.14-.18.25-.34.4-.54.21.23.39.44.54.62zm48.4 5.51c-.65.08-.35-.6-.59-.86.24.24.48.48.71.72-.04.05-.08.1-.12.14zM51.68 11.65c-.03.5-.2.81-.84.68.32-.25.58-.46.84-.68zm84.15 8.21c-.3.23-.58.16-.8-.19.33-.26.59-.2.8.19zm-58.23-.58c.08-.42.14-.77.21-1.13.08.37.16.74.24 1.13h-.45zm89.55 6.88c.13-.43.41-.46 1-.05-.32.01-.63.03-1 .05zm7.99-4.4c-.09.24-.15.41-.22.59-.17-.17-.33-.33-.58-.59h.8zm-24.13 8.85c-.92-.29-1.03-.42-.87-.71.27.23.57.47.87.71zM112.56 6.57c.2.06.38.11.56.16l.03.13c-.27.09-.53.18-.91.31l.32-.6zm110.9 23.76c-.09-.15-.15-.26-.24-.41.33-.09.64-.17.94-.24.01.02.03.04.04.06-.24.18-.47.37-.74.59zm92.33-17.49c.38.26.53.68.37 1.24-.12-.4-.24-.81-.37-1.24zM64.8 2.25h.76c-.26.23-.48.41-.72.62-.01-.21-.02-.41-.04-.62zM16.99 29.62c-.12.04-.23.08-.38.14l-.49-.58c.54-.27.53.4.87.44zm114.25-3.73c.06-.44.11-.79.16-1.18.33.38.3.61-.16 1.18zM73.31 3.23c-.4.12-.73.22-1.08.32.19-.5.38-.56 1.08-.32zm131.1 20.13c-.14.22-.29.45-.43.68-.13-.07-.28-.14-.47-.24.3-.18.57-.33.84-.49.02.01.04.03.06.05zm21.22-.18c.2.24.32.4.45.55-.02.04-.04.07-.05.11-.23-.05-.46-.1-.69-.14.08-.15.16-.3.29-.52zm-141.51.38c.78-.02 1.01.16.84.57-.26-.18-.52-.36-.84-.57zm-59.51 4.7c-.08-.32 0-.59.36-.72.06-.02.14-.02.21-.03 0 .08.03.19-.01.23-.18.19-.38.35-.56.52zM173.7 17.08c-.31.43-.61.13-.89.08-.02 0-.05-.16-.03-.17a.35.35 0 0 1 .22-.06c.23.04.45.1.7.15zm-16.27 13.39c-.24.07-.49.13-.85.23.08-.2.1-.37.15-.39.22-.05.44-.04.67-.05l.03.21zM319.02 8.18c-.97-.24-1.03-.28-1.08-.71.39.25.73.48 1.08.71zM104.71 18.41c-.24-.06-.42-.11-.64-.17.09-.23.17-.42.28-.7.14.33.23.57.36.87zM259.34 5.67c.33.27.59.49.85.71-.3.29-.32.28-.85-.71zm-13.46 21.46c.36-.16.64-.28.99-.43.02.11.08.25.04.35-.03.06-.21.07-.32.08-.23.01-.45 0-.71 0zm-112.41 1.82c-.48.29-.64.3-.97.01.35-.07.65-.12.95-.18.01.06.01.12.02.17zm40.68-2.84c.36-.07.6.12.82.38-.02.05-.05.1-.07.15-.27-.13-.54-.25-.81-.38.03-.05.04-.1.06-.15zm73.11 4.96c.25-.28.45-.5.66-.73.05.66-.04.77-.66.73zm79.47-12.86c-.09.4-.16.73-.24 1.09-.24-.48-.17-.89.24-1.09zM27.53 7.48c-.24.24-.47.49-.71.73-.18-.24.1-.61.62-.82l.09.09zm42-1.23c-.42.22-.99.01-.98-.34.31.11.62.21.98.34zm253.41 2.81c-.1.23-.21.47-.31.7l-.16-.03c.03-.21.04-.43.11-.62.03-.08.2-.12.31-.17.01.04.03.08.05.12zm-167.78 2.3c.14-.23.25-.41.4-.65.11.24.19.43.29.65h-.69zM306.23 27.2v-1.05c.3.09.32.27 0 1.05zM76.67 18.82a9.76 9.76 0 0 0-.49-.16c.19-.22.33-.39.48-.56.04.02.08.05.12.07-.04.2-.07.41-.11.65zM322.74 4.08h-.8c-.01-.03-.03-.06-.04-.09.21-.11.41-.22.62-.3.02-.01.12.21.22.39zm-7.89 27.2c-.27.18-.44.3-.65.44-.07-.17-.14-.31-.24-.55l.89.11zM19.66 27.12c.2-.21.1-.68.61-.57-.06.35-.14.64-.61.57zM54.77 6.51c.15-.23.28-.44.41-.65.04.03.08.06.12.08-.09.25-.18.49-.28.77-.14-.11-.24-.2-.25-.2zm167.85 16.82c.58-.24 1.13-.17 1.26.08-.42-.03-.84-.06-1.26-.08zm8.69-8.2c.23-.07.45-.16.68-.21.04-.01.11.17.2.31-.33.02-.58.03-.83.04-.02-.05-.03-.09-.05-.14zM66.36 27.09c.21-.09.43-.18.72-.3-.07.28-.1.43-.14.59l-.54-.18a.357.357 0 0 0-.04-.11zm187.8-8.98c.58.35.58.35.53 1.11-.19-.39-.34-.71-.53-1.11zM21.77 9.64c-.3.06-.56.11-.85.16.2-.47.56-.54.85-.16zm150.64 6.07c.52-.3 1.05-.28 1.19 0h-1.19zm-147.4-4.26c-.2-.1-.4-.19-.64-.31.24-.12.43-.21.64-.31v.62zm4.91 17.31v-.89c.15.05.28.09.46.14-.15.24-.28.45-.46.75zm282.6-8.88c-.03.27-.07.55-.11.86-.14-.07-.24-.12-.39-.2.15-.24.28-.45.41-.67.03 0 .06 0 .09.01zm-264.99-.4c.82-.46.82-.46.89 0h-.89zm-30.45-9.23c.19.1.38.19.61.31-.11.13-.21.24-.33.38l-.38-.6c.03-.03.07-.06.1-.09zm-.24-3.78c-.36-.11-.71-.22-1.07-.32.02-.06.04-.13.06-.19.34.12.69.25 1.03.37 0 .04-.01.09-.02.14zm210.73 15.78l-1.05-1.38c.03-.02.05-.04.08-.06.36.45.71.91 1.07 1.36-.04.03-.07.06-.1.08zm98.4 4.06c.3.12.59.24.89.35a.75.75 0 0 0-.05.16c-.3-.1-.61-.19-.91-.29.02-.08.05-.15.07-.22zM.69 11.48c.52.16.61.41.32.72-.11-.25-.22-.48-.32-.72zm19.36-3.66c.09-.31.17-.62.26-.92-.08.31.41.72-.26.92zm35 21.9c.12-.29.23-.58.35-.87l.21.09-.42.84a.535.535 0 0 1-.14-.06zm169.96-11.07c.1.08.21.16.33.26-.1.13-.2.28-.4.55l-.07-.81h.14zm-21.89 4.05c-.27.24-.54.56-.95.14.35-.05.65-.09.95-.14zm58.83-4.33c.24-.06.48-.11.75-.18v.43c-.24-.06-.49-.11-.73-.17 0-.02-.01-.05-.02-.08zm-157.54 9.82c.11.26.22.52.35.86-.39-.2-.61-.4-.35-.86zM47.39 12.62c.29-.03.49-.05.83-.08-.27.2-.45.32-.62.45-.02-.03-.08-.15-.21-.37zm29.53 2.7c.12-.33.19-.54.27-.79.12.18.22.32.35.5-.18.09-.34.16-.62.29zm122.67 6.91c.06-.17.11-.3.17-.46l.38.19c-.1.27-.17.59-.55.27zm-182.99.21c-.08.18-.15.36-.24.57-.13-.08-.25-.15-.4-.25.18-.15.35-.29.51-.43.04.03.09.07.13.11zm261.68-1.37l-.5.59-.17-.14c.16-.2.33-.4.49-.6l.18.15zM68.93 4.74c.31.12.63.25.94.37-.02.05-.04.11-.06.16-.31-.12-.63-.24-.94-.36.01-.06.04-.11.06-.17zM255.84 17.8h.57c-.22.23-.37.4-.57.61v-.61zm9.99-12c-.26-.1-.42-.16-.57-.21.05-.18.09-.33.17-.63.15.33.26.54.4.84zm.7 9.45c-.18.21-.25.3-.34.4-.16-.19-.27-.33-.39-.47.01-.04.02-.07.04-.11.19.06.39.11.69.18zm-46.06-1.14h.64v.44c-.27-.13-.47-.23-.68-.33.02-.04.03-.07.04-.11zm76.16-2.6c.48-.06.48-.05.46.6-.19-.24-.34-.44-.46-.6zm7.14-.08c-.57.1-.64-.21-.64-.59.19.17.38.35.64.59zm-73.73-5.57c-.15-.09-.33-.16-.32-.19.04-.19.13-.37.2-.55.04.01.08.03.12.04v.7zm-27.06-1.63c-.37.13-.46-.2-.55-.54.2.13.41.26.61.39-.01.05-.04.1-.06.15zm21.51 3.25c.19-.1.38-.19.7-.35-.11.23-.13.41-.23.46-.12.07-.3.05-.46.06.01-.06 0-.11-.01-.17zm-148.31 19h-.49c.09-.23.16-.44.27-.75.09.3.15.51.22.75zM269.74 2.94l.57.54c-.35.13-.35.13-.67-.41.03-.04.06-.08.1-.13zm-45.57 21.93c-.03.18-.06.31-.1.51-.18-.08-.35-.14-.51-.21 0-.04.01-.09.01-.13.19-.06.38-.11.6-.17zm76.91-4.3l.3-.57c.03 0 .05 0 .08.01.01.18.06.36.02.52-.02.08-.23.1-.35.15-.02-.04-.04-.07-.05-.11zM198.72 4.86c-.07.45-.14.91-.22 1.36.05-.46-.19-.97.22-1.36zm31.03 11.35c.16-.22.29-.41.46-.66v.66h-.46zm33.23-5.49v.69c-.13-.17-.19-.28-.28-.34-.07-.06-.18-.07-.29-.19.18-.06.35-.1.57-.16zM6.61 10.1c-.37-.1-.75-.19-1.1-.28.17-.15.17-.15 1.13.17l-.03.11z" fill="#000"/></g><defs><clipPath id="a"><path fill="#fff" d="M0 0h331v33H0z"/></clipPath></defs></svg>